<?xml version="1.0" encoding="UTF-8" standalone="no"?>
<svg width="55px" height="46px" viewBox="0 0 55 46" version="1.1" xmlns="http://www.w3.org/2000/svg" xmlns:xlink="http://www.w3.org/1999/xlink" xmlns:sketch="http://www.bohemiancoding.com/sketch/ns">
    <!-- Generator: Sketch 3.3.1 (12002) - http://www.bohemiancoding.com/sketch -->
    <title>sign92</title>
    <desc>Created with Sketch.</desc>
    <defs></defs>
    <g id="Page-1" stroke="none" stroke-width="1" fill="none" fill-rule="evenodd" sketch:type="MSPage">
        <g id="Discovery-Map" sketch:type="MSArtboardGroup" transform="translate(-652.000000, -71.000000)" fill="#888888">
            <g id="sign92" sketch:type="MSLayerGroup" transform="translate(652.000000, 71.000000)">
                <path d="M53.3647751,35.9228241 L32.778726,3.16060671 C31.6178208,1.3128194 29.6361715,0.20959202 27.4779567,0.20959202 C25.3195689,0.20959202 23.3379196,1.3128194 22.1773603,3.16060671 L1.59113828,35.9226485 C0.355525708,37.8893476 0.273555049,40.3822796 1.37791081,42.4288973 C2.48226657,44.4746367 4.59517272,45.7456052 6.89208051,45.7456052 L48.0640058,45.7456052 C50.3609136,45.7456052 52.4738197,44.4748123 53.5785214,42.4283703 C54.6823583,40.3822796 54.6003877,37.8895232 53.3647751,35.9228241 L53.3647751,35.9228241 Z M27.4779567,40.2308735 C25.5848495,40.2308735 24.0504072,38.6721981 24.0504072,36.749586 C24.0504072,34.8267982 25.5850224,33.2681229 27.4779567,33.2681229 C29.3710639,33.2681229 30.9055062,34.8267982 30.9055062,36.749586 C30.9055062,38.6721981 29.3708909,40.2308735 27.4779567,40.2308735 L27.4779567,40.2308735 Z M32.2287962,16.039087 L30.5406157,27.5837179 C30.2921097,29.283085 28.7343213,30.4560435 27.061359,30.2036414 C25.7097078,29.9997173 24.6963152,28.9233637 24.4879299,27.6230624 L22.6546578,16.1012654 C22.227857,13.4186366 24.0229107,10.8925076 26.6641298,10.4590153 C29.305349,10.025523 31.7924841,11.8487199 32.2192849,14.5313488 C32.2995262,15.0365043 32.2967593,15.5579949 32.2287962,16.039087 L32.2287962,16.039087 Z" id="Shape" sketch:type="MSShapeGroup"></path>
            </g>
        </g>
    </g>
</svg>