<?xml version="1.0" encoding="utf-8"?>
<!-- Generator: Adobe Illustrator 16.0.0, SVG Export Plug-In . SVG Version: 6.00 Build 0)  -->
<!DOCTYPE svg PUBLIC "-//W3C//DTD SVG 1.1//EN" "http://www.w3.org/Graphics/SVG/1.1/DTD/svg11.dtd">
<svg version="1.1" id="Layer_1" xmlns:sketch="http://www.bohemiancoding.com/sketch/ns"
	 xmlns="http://www.w3.org/2000/svg" xmlns:xlink="http://www.w3.org/1999/xlink" x="0px" y="0px" width="55px" height="46px"
	 viewBox="0 0 55 46" enable-background="new 0 0 55 46" xml:space="preserve">
<title>sign92</title>
<desc>Created with Sketch.</desc>
<g id="Page-1" sketch:type="MSPage">
	<g id="Discovery-Map" transform="translate(-652.000000, -71.000000)" sketch:type="MSArtboardGroup">
		<g id="sign92" transform="translate(652.000000, 71.000000)" sketch:type="MSLayerGroup">
			<path id="Shape" sketch:type="MSShapeGroup" fill="#888888" d="M53.365,35.923L32.779,3.161
				c-1.162-1.848-3.143-2.951-5.301-2.951c-2.158,0-4.14,1.104-5.301,2.951L1.591,35.923c-1.236,1.966-1.318,4.46-0.213,6.507
				c1.105,2.045,3.217,3.316,5.514,3.316h41.172c2.297,0,4.408-1.271,5.514-3.318C54.682,40.383,54.602,37.891,53.365,35.923
				L53.365,35.923z M27.478,40.23c-1.893,0-3.428-1.56-3.428-3.48c0-1.924,1.535-3.482,3.428-3.482s3.426,1.56,3.426,3.482
				C30.904,38.672,29.371,40.23,27.478,40.23L27.478,40.23z M32.229,16.039l-1.688,11.545c-0.249,1.699-1.807,2.872-3.479,2.619
				c-1.352-0.203-2.365-1.279-2.574-2.58l-1.833-11.522c-0.427-2.683,1.368-5.208,4.009-5.642c2.641-0.434,5.129,1.39,5.555,4.072
				C32.299,15.037,32.297,15.558,32.229,16.039L32.229,16.039z"/>
		</g>
	</g>
</g>
</svg>
