<?xml version="1.0" encoding="UTF-8" standalone="no"?>
<svg width="334px" height="39px" viewBox="0 0 334 39" version="1.1" xmlns="http://www.w3.org/2000/svg" xmlns:xlink="http://www.w3.org/1999/xlink" xmlns:sketch="http://www.bohemiancoding.com/sketch/ns">
    <!-- Generator: Sketch 3.3.1 (12002) - http://www.bohemiancoding.com/sketch -->
    <title>COFFEE SHOTS</title>
    <desc>Created with Sketch.</desc>
    <defs>
        <linearGradient x1="50%" y1="65.1722967%" x2="50%" y2="100%" id="linearGradient-1">
            <stop stop-color="#5C4738" offset="0%"></stop>
            <stop stop-color="#4B382A" offset="100%"></stop>
        </linearGradient>
    </defs>
    <g id="Page-1" stroke="none" stroke-width="1" fill="none" fill-rule="evenodd" sketch:type="MSPage">
        <g id="Discovery-List" sketch:type="MSArtboardGroup" transform="translate(-207.000000, -78.000000)" fill="url(#linearGradient-1)">
            <path d="M207.57,97.685 C207.57,94.751652 208.083328,92.1025118 209.11,89.7375 C210.136672,87.3724882 211.529991,85.3466751 213.29,83.66 C215.050009,81.9733249 217.103322,80.6808378 219.45,79.7825 C221.796678,78.8841622 224.289987,78.435 226.93,78.435 C229.02001,78.435 230.880825,78.6366647 232.5125,79.04 C234.144175,79.4433353 235.546661,79.9016641 236.72,80.415 C238.076673,81.0016696 239.249995,81.6433299 240.24,82.34 L234.465,92.515 C233.87833,92.0749978 233.23667,91.6533354 232.54,91.25 C231.916664,90.9566652 231.174171,90.6725014 230.3125,90.3975 C229.450829,90.1224986 228.470005,89.985 227.37,89.985 C226.233328,89.985 225.188338,90.1866646 224.235,90.59 C223.281662,90.9933353 222.447504,91.5433298 221.7325,92.24 C221.017496,92.9366701 220.458335,93.7524953 220.055,94.6875 C219.651665,95.6225047 219.45,96.6216614 219.45,97.685 C219.45,98.7483386 219.660831,99.7474953 220.0825,100.6825 C220.504169,101.617505 221.081663,102.43333 221.815,103.13 C222.548337,103.82667 223.409995,104.376665 224.4,104.78 C225.390005,105.183335 226.471661,105.385 227.645,105.385 C228.818339,105.385 229.863329,105.238335 230.78,104.945 C231.696671,104.651665 232.466664,104.321669 233.09,103.955 C233.823337,103.551665 234.464997,103.075003 235.015,102.525 L240.79,112.7 C239.799995,113.506671 238.626673,114.221664 237.27,114.845 C236.096661,115.358336 234.685008,115.834998 233.035,116.275 C231.384992,116.715002 229.496677,116.935 227.37,116.935 C224.509986,116.935 221.870012,116.467505 219.45,115.5325 C217.029988,114.597495 214.940009,113.286675 213.18,111.6 C211.419991,109.913325 210.045005,107.887512 209.055,105.5225 C208.064995,103.157488 207.57,100.545014 207.57,97.685 L207.57,97.685 Z M241.34,97.685 C241.34,95.0449868 241.844162,92.5516784 242.8525,90.205 C243.860838,87.8583216 245.235825,85.8141754 246.9775,84.0725 C248.719175,82.3308246 250.763322,80.9558384 253.11,79.9475 C255.456678,78.9391616 257.949987,78.435 260.59,78.435 C263.230013,78.435 265.723322,78.9391616 268.07,79.9475 C270.416678,80.9558384 272.460825,82.3308246 274.2025,84.0725 C275.944175,85.8141754 277.319162,87.8583216 278.3275,90.205 C279.335838,92.5516784 279.84,95.0449868 279.84,97.685 C279.84,100.325013 279.335838,102.818322 278.3275,105.165 C277.319162,107.511678 275.944175,109.555825 274.2025,111.2975 C272.460825,113.039175 270.416678,114.414162 268.07,115.4225 C265.723322,116.430838 263.230013,116.935 260.59,116.935 C257.949987,116.935 255.456678,116.430838 253.11,115.4225 C250.763322,114.414162 248.719175,113.039175 246.9775,111.2975 C245.235825,109.555825 243.860838,107.511678 242.8525,105.165 C241.844162,102.818322 241.34,100.325013 241.34,97.685 L241.34,97.685 Z M252.89,97.685 C252.89,98.7483386 253.091665,99.7474953 253.495,100.6825 C253.898335,101.617505 254.44833,102.43333 255.145,103.13 C255.84167,103.82667 256.657495,104.376665 257.5925,104.78 C258.527505,105.183335 259.526661,105.385 260.59,105.385 C261.653339,105.385 262.652495,105.183335 263.5875,104.78 C264.522505,104.376665 265.33833,103.82667 266.035,103.13 C266.73167,102.43333 267.281665,101.617505 267.685,100.6825 C268.088335,99.7474953 268.29,98.7483386 268.29,97.685 C268.29,96.6216614 268.088335,95.6225047 267.685,94.6875 C267.281665,93.7524953 266.73167,92.9366701 266.035,92.24 C265.33833,91.5433298 264.522505,90.9933353 263.5875,90.59 C262.652495,90.1866646 261.653339,89.985 260.59,89.985 C259.526661,89.985 258.527505,90.1866646 257.5925,90.59 C256.657495,90.9933353 255.84167,91.5433298 255.145,92.24 C254.44833,92.9366701 253.898335,93.7524953 253.495,94.6875 C253.091665,95.6225047 252.89,96.6216614 252.89,97.685 L252.89,97.685 Z M282.865,79.315 L304.48,79.315 L304.48,88.94 L294.58,88.94 L294.58,93.01 L304.315,93.01 L304.315,102.14 L294.58,102.14 L294.58,116 L282.865,116 L282.865,79.315 Z M307.505,79.315 L329.12,79.315 L329.12,88.94 L319.22,88.94 L319.22,93.01 L328.955,93.01 L328.955,102.14 L319.22,102.14 L319.22,116 L307.505,116 L307.505,79.315 Z M332.145,79.315 L353.76,79.315 L353.76,88.94 L343.86,88.94 L343.86,93.01 L353.595,93.01 L353.595,102.14 L343.86,102.14 L343.86,106.375 L354.145,106.375 L354.145,116 L332.145,116 L332.145,79.315 Z M357.445,79.315 L379.06,79.315 L379.06,88.94 L369.16,88.94 L369.16,93.01 L378.895,93.01 L378.895,102.14 L369.16,102.14 L369.16,106.375 L379.445,106.375 L379.445,116 L357.445,116 L357.445,79.315 Z M392.755,104.615 C393.561671,104.871668 394.404996,105.073333 395.285,105.22 C396.018337,105.403334 396.852495,105.549999 397.7875,105.66 C398.722505,105.770001 399.666662,105.825 400.62,105.825 C402.306675,105.825 403.15,105.201673 403.15,103.955 C403.15,103.478331 402.893336,102.992502 402.38,102.4975 C401.866664,102.002498 401.215837,101.452503 400.4275,100.8475 C399.639163,100.242497 398.795838,99.573337 397.8975,98.84 C396.999162,98.106663 396.155837,97.2633381 395.3675,96.31 C394.579163,95.3566619 393.928336,94.2841726 393.415,93.0925 C392.901664,91.9008274 392.645,90.5350077 392.645,88.995 C392.645,87.271658 392.956664,85.7500066 393.58,84.43 C394.203336,83.1099934 395.064995,82.0100044 396.165,81.13 C397.265006,80.2499956 398.557493,79.5808356 400.0425,79.1225 C401.527507,78.6641644 403.113325,78.435 404.8,78.435 C405.680004,78.435 406.559996,78.4808329 407.44,78.5725 C408.320004,78.6641671 409.10833,78.7466663 409.805,78.82 C410.611671,78.9300005 411.399996,79.0399994 412.17,79.15 L412.17,89.435 C411.876665,89.3983331 411.546669,89.3616669 411.18,89.325 C410.886665,89.2883331 410.556669,89.2516668 410.19,89.215 C409.823331,89.1783332 409.438335,89.16 409.035,89.16 C408.814999,89.16 408.540002,89.1691666 408.21,89.1875 C407.879998,89.2058334 407.568335,89.2516663 407.275,89.325 C406.981665,89.3983337 406.725001,89.5266658 406.505,89.71 C406.284999,89.8933342 406.175,90.1499984 406.175,90.48 C406.175,90.7733348 406.422498,91.1399978 406.9175,91.58 C407.412502,92.0200022 408.017496,92.5333304 408.7325,93.12 C409.447504,93.7066696 410.235829,94.3849962 411.0975,95.155 C411.959171,95.9250038 412.747496,96.8049951 413.4625,97.795 C414.177504,98.785005 414.782498,99.9033271 415.2775,101.15 C415.772502,102.396673 416.02,103.789992 416.02,105.33 C416.02,106.943341 415.763336,108.455826 415.25,109.8675 C414.736664,111.279174 413.939172,112.507495 412.8575,113.5525 C411.775828,114.597505 410.391675,115.422497 408.705,116.0275 C407.018325,116.632503 405.020012,116.935 402.71,116.935 C401.31666,116.935 400.024173,116.870834 398.8325,116.7425 C397.640827,116.614166 396.586671,116.458334 395.67,116.275 C394.606661,116.091666 393.635004,115.871668 392.755,115.615 L392.755,104.615 Z M418.495,79.315 L430.21,79.315 L430.21,91.8 L436.755,91.8 L436.755,79.315 L448.525,79.315 L448.525,116 L436.755,116 L436.755,102.415 L430.21,102.415 L430.21,116 L418.495,116 L418.495,79.315 Z M451.55,97.685 C451.55,95.0449868 452.054162,92.5516784 453.0625,90.205 C454.070838,87.8583216 455.445825,85.8141754 457.1875,84.0725 C458.929175,82.3308246 460.973322,80.9558384 463.32,79.9475 C465.666678,78.9391616 468.159987,78.435 470.8,78.435 C473.440013,78.435 475.933322,78.9391616 478.28,79.9475 C480.626678,80.9558384 482.670825,82.3308246 484.4125,84.0725 C486.154175,85.8141754 487.529162,87.8583216 488.5375,90.205 C489.545838,92.5516784 490.05,95.0449868 490.05,97.685 C490.05,100.325013 489.545838,102.818322 488.5375,105.165 C487.529162,107.511678 486.154175,109.555825 484.4125,111.2975 C482.670825,113.039175 480.626678,114.414162 478.28,115.4225 C475.933322,116.430838 473.440013,116.935 470.8,116.935 C468.159987,116.935 465.666678,116.430838 463.32,115.4225 C460.973322,114.414162 458.929175,113.039175 457.1875,111.2975 C455.445825,109.555825 454.070838,107.511678 453.0625,105.165 C452.054162,102.818322 451.55,100.325013 451.55,97.685 L451.55,97.685 Z M463.1,97.685 C463.1,98.7483386 463.301665,99.7474953 463.705,100.6825 C464.108335,101.617505 464.65833,102.43333 465.355,103.13 C466.05167,103.82667 466.867495,104.376665 467.8025,104.78 C468.737505,105.183335 469.736661,105.385 470.8,105.385 C471.863339,105.385 472.862495,105.183335 473.7975,104.78 C474.732505,104.376665 475.54833,103.82667 476.245,103.13 C476.94167,102.43333 477.491665,101.617505 477.895,100.6825 C478.298335,99.7474953 478.5,98.7483386 478.5,97.685 C478.5,96.6216614 478.298335,95.6225047 477.895,94.6875 C477.491665,93.7524953 476.94167,92.9366701 476.245,92.24 C475.54833,91.5433298 474.732505,90.9933353 473.7975,90.59 C472.862495,90.1866646 471.863339,89.985 470.8,89.985 C469.736661,89.985 468.737505,90.1866646 467.8025,90.59 C466.867495,90.9933353 466.05167,91.5433298 465.355,92.24 C464.65833,92.9366701 464.108335,93.7524953 463.705,94.6875 C463.301665,95.6225047 463.1,96.6216614 463.1,97.685 L463.1,97.685 Z M497.915,88.94 L491.15,88.94 L491.15,79.315 L516.78,79.315 L516.78,88.94 L510.015,88.94 L510.015,116 L497.915,116 L497.915,88.94 Z M517.715,104.615 C518.521671,104.871668 519.364996,105.073333 520.245,105.22 C520.978337,105.403334 521.812495,105.549999 522.7475,105.66 C523.682505,105.770001 524.626662,105.825 525.58,105.825 C527.266675,105.825 528.11,105.201673 528.11,103.955 C528.11,103.478331 527.853336,102.992502 527.34,102.4975 C526.826664,102.002498 526.175837,101.452503 525.3875,100.8475 C524.599163,100.242497 523.755838,99.573337 522.8575,98.84 C521.959162,98.106663 521.115837,97.2633381 520.3275,96.31 C519.539163,95.3566619 518.888336,94.2841726 518.375,93.0925 C517.861664,91.9008274 517.605,90.5350077 517.605,88.995 C517.605,87.271658 517.916664,85.7500066 518.54,84.43 C519.163336,83.1099934 520.024994,82.0100044 521.125,81.13 C522.225005,80.2499956 523.517493,79.5808356 525.0025,79.1225 C526.487507,78.6641644 528.073325,78.435 529.76,78.435 C530.640004,78.435 531.519996,78.4808329 532.4,78.5725 C533.280004,78.6641671 534.06833,78.7466663 534.765,78.82 C535.571671,78.9300005 536.359996,79.0399994 537.13,79.15 L537.13,89.435 C536.836665,89.3983331 536.506668,89.3616669 536.14,89.325 C535.846665,89.2883331 535.516668,89.2516668 535.15,89.215 C534.783332,89.1783332 534.398335,89.16 533.995,89.16 C533.774999,89.16 533.500002,89.1691666 533.17,89.1875 C532.839998,89.2058334 532.528335,89.2516663 532.235,89.325 C531.941665,89.3983337 531.685001,89.5266658 531.465,89.71 C531.244999,89.8933342 531.135,90.1499984 531.135,90.48 C531.135,90.7733348 531.382498,91.1399978 531.8775,91.58 C532.372502,92.0200022 532.977496,92.5333304 533.6925,93.12 C534.407504,93.7066696 535.195829,94.3849962 536.0575,95.155 C536.919171,95.9250038 537.707496,96.8049951 538.4225,97.795 C539.137504,98.785005 539.742498,99.9033271 540.2375,101.15 C540.732502,102.396673 540.98,103.789992 540.98,105.33 C540.98,106.943341 540.723336,108.455826 540.21,109.8675 C539.696664,111.279174 538.899172,112.507495 537.8175,113.5525 C536.735828,114.597505 535.351675,115.422497 533.665,116.0275 C531.978325,116.632503 529.980012,116.935 527.67,116.935 C526.27666,116.935 524.984173,116.870834 523.7925,116.7425 C522.600827,116.614166 521.546671,116.458334 520.63,116.275 C519.566661,116.091666 518.595004,115.871668 517.715,115.615 L517.715,104.615 Z" id="COFFEE-SHOTS" sketch:type="MSShapeGroup"></path>
        </g>
    </g>
</svg>