<?xml version="1.0" encoding="utf-8"?>
<!-- Generator: Adobe Illustrator 16.0.0, SVG Export Plug-In . SVG Version: 6.00 Build 0)  -->
<!DOCTYPE svg PUBLIC "-//W3C//DTD SVG 1.1//EN" "http://www.w3.org/Graphics/SVG/1.1/DTD/svg11.dtd">
<svg version="1.1" id="Layer_1" xmlns:sketch="http://www.bohemiancoding.com/sketch/ns"
	 xmlns="http://www.w3.org/2000/svg" xmlns:xlink="http://www.w3.org/1999/xlink" x="0px" y="0px" width="88px" height="93px"
	 viewBox="0 0 88 93" enable-background="new 0 0 88 93" xml:space="preserve">
<title>Fill 1</title>
<desc>Created with Sketch.</desc>
<g id="Page-1" sketch:type="MSPage">
	<g id="Serve" transform="translate(-90.000000, -1574.000000)" sketch:type="MSArtboardGroup">
		<g id="Nav-unit-Copy" transform="translate(-218.000000, 1481.000000)" sketch:type="MSLayerGroup">
			<g id="Nav-unit" sketch:type="MSShapeGroup">
				<path id="Fill-1" d="M381.076,145.605c0.438-2.689,0.726-3.004,0.78-5.841c0.021-0.19,0.073-0.443,0.076-0.699
					c-0.67-14.146-17.598-22.253-36.671-22.421c-19.077,0.168-35.997,8.275-36.682,22.421c0.018,0.256,0.077,0.509,0.091,0.761
					c0.564,25.338,16.712,45.673,36.587,45.673c10.883,0,20.637-6.131,27.337-15.804c2.386,2.727,5.848,4.472,9.757,4.472
					c7.215,0,13.069-8.311,13.069-15.565c0-7.243-5.852-13.132-13.065-13.132C381.914,145.471,381.506,145.565,381.076,145.605z
					 M368.955,148.846c-5.855,3.348-14.385,5.577-23.854,5.566c-9.48,0.015-18.013-2.219-23.875-5.566
					c-5.942-3.394-8.745-7.555-8.693-11.237c-0.055-3.715,2.762-7.873,8.693-11.262c5.862-3.356,14.395-5.578,23.875-5.563
					c9.469-0.018,17.999,2.207,23.854,5.563c5.942,3.393,8.758,7.547,8.704,11.262C377.713,141.291,374.897,145.452,368.955,148.846
					L368.955,148.846z M382.355,167.05c-2.77-0.004-4.999-1.929-5.677-4.491c0.944-2.061,1.778-6.664,2.489-8.904
					c0.939-0.604,1.985-1.051,3.188-1.064c3.293,0.014,5.972,2.704,5.979,6.013C388.323,161.918,385.648,167.046,382.355,167.05z
					 M365.975,127.397c-5.123-2.928-12.588-4.872-20.877-4.864c-8.296-0.007-15.769,1.936-20.899,4.864
					c-5.188,2.972-7.655,6.613-7.611,9.864c-0.04,3.224,2.412,6.866,7.611,9.838c0,0,7.254-15.255,18.902-3.767
					c11.645,11.489,5.735-12.147,15.073-3.001c9.338,9.143,15.423-3.071,15.423-3.071
					C373.645,134.007,371.182,130.369,365.975,127.397z M336.251,100.343c0.466,0.38,0.955,0.659,1.403,0.952
					c0.871,0.578,1.836,1.142,2.488,1.837c0.339,0.344,0.62,0.732,0.868,1.087c0.244,0.362,0.452,0.706,0.583,1.065
					c0.259,0.703,0.215,1.373,0.077,2.141c-0.266,1.566-1.221,3.316-2.161,5.237l0.157,0.187c1.064-0.377,1.957-1.018,2.758-1.804
					c0.787-0.798,1.465-1.782,1.808-3.023c0.353-1.211,0.131-2.723-0.576-3.825c-0.678-1.142-1.742-1.812-2.776-2.203
					c-0.521-0.216-1.053-0.366-1.498-0.553c-0.459-0.197-0.885-0.457-1.25-0.787c-0.747-0.641-1.083-1.688-0.995-2.292
					c0.029-0.304,0.084-0.556,0.186-0.893c0.113-0.319,0.302-0.681,0.546-1.047c0.478-0.743,1.123-1.504,1.771-2.386l-0.109-0.22
					c-0.576,0.033-1.115,0.187-1.625,0.406c-0.521,0.212-1.005,0.512-1.454,0.896c-0.448,0.392-0.864,0.878-1.151,1.501
					c-0.292,0.615-0.404,1.413-0.182,2.115C335.336,99.438,335.785,99.969,336.251,100.343z M345.881,104.855
					c0.361,0.245,0.707,0.399,1.009,0.582c0.59,0.355,1.224,0.769,1.57,1.281c0.372,0.52,0.594,1.018,0.707,1.38
					c0.087,0.392,0.015,0.677-0.033,1.102c-0.051,0.41-0.193,0.934-0.368,1.516c-0.182,0.589-0.416,1.208-0.616,1.951l0.16,0.183
					c0.791-0.143,1.446-0.516,2.037-1.006c0.583-0.498,1.089-1.167,1.344-2.046c0.266-0.871,0.084-1.999-0.459-2.782
					c-0.506-0.819-1.3-1.244-2.037-1.442c-0.368-0.11-0.743-0.183-1.031-0.286c-0.299-0.106-0.572-0.267-0.791-0.49
					c-0.474-0.428-0.532-1.201-0.375-1.438c0.062-0.128,0.087-0.201,0.116-0.366c0.047-0.161,0.131-0.369,0.245-0.604
					c0.24-0.483,0.586-1.025,0.921-1.738l-0.109-0.22c-0.419-0.059-0.801,0.003-1.173,0.113c-0.379,0.103-0.729,0.286-1.053,0.542
					c-0.328,0.256-0.634,0.593-0.849,1.051c-0.226,0.439-0.306,1.054-0.121,1.584C345.167,104.259,345.531,104.621,345.881,104.855z
					"/>
			</g>
		</g>
	</g>
</g>
</svg>
