<?xml version="1.0" encoding="UTF-8" standalone="no"?>
<svg width="65px" height="65px" viewBox="0 0 65 65" version="1.1" xmlns="http://www.w3.org/2000/svg" xmlns:xlink="http://www.w3.org/1999/xlink" xmlns:sketch="http://www.bohemiancoding.com/sketch/ns">
    <!-- Generator: Sketch 3.3.1 (12002) - http://www.bohemiancoding.com/sketch -->
    <title>Oval 32 + edit45 Copy 2</title>
    <desc>Created with Sketch.</desc>
    <defs></defs>
    <g id="Page-1" stroke="none" stroke-width="1" fill="none" fill-rule="evenodd" sketch:type="MSPage">
        <g id="Serve" sketch:type="MSArtboardGroup" transform="translate(-657.000000, -1048.000000)">
            <g id="Oval-32-+-edit45-Copy-2" sketch:type="MSLayerGroup" transform="translate(657.000000, 1048.000000)">
                <circle id="Oval-32" fill="#6A635C" sketch:type="MSShapeGroup" cx="32.5" cy="32.5" r="32.5"></circle>
                <g id="edit45" transform="translate(16.677632, 16.677632)" fill="#FFFFFF" sketch:type="MSShapeGroup">
                    <path d="M19.6737542,5.2916365 L26.1097793,11.7520266 L9.81842267,28.10521 L3.38604666,21.6448199 L19.6737542,5.2916365 L19.6737542,5.2916365 Z M30.9934774,3.73353852 L28.1232579,0.852426346 C27.0140171,-0.261024044 25.2128394,-0.261024044 24.09983,0.852426346 L21.3504467,3.61224371 L27.7864717,10.0726939 L30.9934774,6.85351743 C31.8538075,5.9898623 31.8538075,4.5971336 30.9934774,3.73353852 L30.9934774,3.73353852 Z M0.0179459755,30.7254182 C-0.0991814247,31.2545518 0.376745846,31.7286825 0.903938787,31.6000019 L8.07580863,29.8544974 L1.64343262,23.3941073 L0.0179459755,30.7254182 L0.0179459755,30.7254182 Z" id="Shape"></path>
                </g>
            </g>
        </g>
    </g>
</svg>