<?xml version="1.0" encoding="UTF-8" standalone="no"?>
<svg width="24px" height="44px" viewBox="0 0 24 44" version="1.1" xmlns="http://www.w3.org/2000/svg" xmlns:xlink="http://www.w3.org/1999/xlink" xmlns:sketch="http://www.bohemiancoding.com/sketch/ns">
    <!-- Generator: Sketch 3.3.1 (12002) - http://www.bohemiancoding.com/sketch -->
    <title>facebook55 (1)</title>
    <desc>Created with Sketch.</desc>
    <defs></defs>
    <g id="Page-1" stroke="none" stroke-width="1" fill="none" fill-rule="evenodd" sketch:type="MSPage">
        <g id="Launch-screen-Onboarding" sketch:type="MSArtboardGroup" transform="translate(-101.000000, -392.000000)" fill="#FFFFFF">
            <g id="facebook55-(1)" sketch:type="MSLayerGroup" transform="translate(101.000000, 392.000000)">
                <path d="M22.6170797,0.667743007 L17.1330738,0.658842822 C10.9719814,0.658842822 6.99041277,4.79075376 6.99041277,11.1859818 L6.99041277,16.0396977 L1.47649019,16.0396977 C1.00002181,16.0396977 0.614183616,16.4304159 0.614183616,16.9123609 L0.614183616,23.9448422 C0.614183616,24.4267872 1.00046176,24.8170603 1.47649019,24.8170603 L6.99041277,24.8170603 L6.99041277,42.5622494 C6.99041277,43.0441944 7.37625097,43.4344675 7.85271934,43.4344675 L15.0468199,43.4344675 C15.5232883,43.4344675 15.9091265,43.0437494 15.9091265,42.5622494 L15.9091265,24.8170603 L22.3561879,24.8170603 C22.8326563,24.8170603 23.2184945,24.4267872 23.2184945,23.9448422 L23.2211342,16.9123609 C23.2211342,16.6809561 23.1300641,16.4593415 22.9686016,16.2955781 C22.8071391,16.1318146 22.5871629,16.0396977 22.3583877,16.0396977 L15.9091265,16.0396977 L15.9091265,11.9251422 C15.9091265,9.94752102 16.375036,8.94358014 18.92192,8.94358014 L22.6161998,8.94224511 C23.0922282,8.94224511 23.4780664,8.55152698 23.4780664,8.07002697 L23.4780664,1.53996115 C23.4780664,1.05890614 23.0926681,0.668633026 22.6170797,0.667743007 L22.6170797,0.667743007 Z" id="Shape" sketch:type="MSShapeGroup"></path>
            </g>
        </g>
    </g>
</svg>