<?xml version="1.0" encoding="UTF-8" standalone="no"?>
<svg width="270px" height="57px" viewBox="0 0 270 57" version="1.1" xmlns="http://www.w3.org/2000/svg" xmlns:xlink="http://www.w3.org/1999/xlink" xmlns:sketch="http://www.bohemiancoding.com/sketch/ns">
    <!-- Generator: Sketch 3.3.1 (12002) - http://www.bohemiancoding.com/sketch -->
    <title>path10</title>
    <desc>Created with Sketch.</desc>
    <defs></defs>
    <g id="Page-1" stroke="none" stroke-width="1" fill="none" fill-rule="evenodd" sketch:type="MSPage">
        <g id="Launch-screen-Facebook-login" sketch:type="MSArtboardGroup" transform="translate(-240.000000, -251.000000)" fill="#FFFFFF">
            <path d="M384.089865,278.591923 C381.780103,278.591923 380.115103,279.3492 378.427347,280.121017 L378.427347,297.579499 C380.044306,297.733736 380.970992,297.733736 382.505775,297.733736 C388.049455,297.733736 388.809262,295.195148 388.809262,291.650227 L388.809262,283.311319 C388.809262,280.694349 387.940731,278.591923 384.089865,278.591923 L384.089865,278.591923 Z M347.274649,277.63932 C343.42884,277.63932 342.550195,279.751228 342.550195,282.36567 L342.550195,283.834714 L351.993414,283.834714 L351.993414,282.36567 C351.993414,279.751228 351.116033,277.63932 347.274649,277.63932 L347.274649,277.63932 Z M275.956507,295.812096 C275.956507,297.880387 276.932498,298.954989 279.086758,298.954989 C281.397783,298.954989 282.765688,298.201504 284.45218,297.427791 L284.45218,293.28615 L279.399025,293.28615 C277.00772,293.28615 275.956507,293.731161 275.956507,295.812096 L275.956507,295.812096 Z M419.901908,278.591923 C416.049778,278.591923 414.714744,280.694349 414.714744,283.311319 L414.714744,292.863895 C414.714744,295.488451 416.049778,297.597198 419.901908,297.597198 C423.743925,297.597198 425.089073,295.488451 425.089073,292.863895 L425.089073,283.311319 C425.089073,280.694349 423.743925,278.591923 419.901908,278.591923 L419.901908,278.591923 Z M257.077023,306.522712 L245.752619,306.522712 L245.752619,279.110892 L240.093262,279.110892 L240.093262,269.665145 L245.752619,269.665145 L245.752619,263.993777 C245.752619,256.28762 248.946714,251.705393 258.023936,251.705393 L265.581545,251.705393 L265.581545,261.153036 L260.857723,261.153036 C257.323549,261.153036 257.090929,262.4729 257.090929,264.936898 L257.077022,269.665145 L265.634643,269.665145 L264.633367,279.110892 L257.077022,279.110892 L257.077022,306.522712 L257.077023,306.522712 Z M295.781008,306.593509 L286.342847,306.593509 L285.933866,304.20663 C281.624082,306.593509 277.77764,306.980366 275.240317,306.980366 C268.318619,306.980366 264.633367,302.355787 264.633367,295.961276 C264.633367,288.416309 268.932406,285.723484 276.624024,285.723484 L284.45218,285.723484 L284.45218,284.092618 C284.45218,280.242384 284.010961,279.110892 278.088643,279.110892 L268.405219,279.110892 L269.352132,269.665145 L279.936957,269.665145 C292.93205,269.665145 295.781008,273.770122 295.781008,284.168472 L295.781008,306.593509 L295.781008,306.593509 Z M327.877459,279.803694 C322.003814,278.797361 320.317322,278.576119 317.49112,278.576119 C312.414576,278.576119 310.880424,279.696234 310.880424,284.00665 L310.880424,292.160979 C310.880424,296.472027 312.414576,297.597198 317.49112,297.597198 C320.317322,297.597198 322.003814,297.372164 327.877459,296.360775 L327.877459,305.574534 C322.732647,306.727519 319.381154,307.030935 316.547999,307.030935 C304.389199,307.030935 299.55602,300.636424 299.55602,291.399908 L299.55602,284.782891 C299.55602,275.538158 304.389199,269.132901 316.547999,269.132901 C319.381154,269.132901 322.732647,269.437582 327.877459,270.595623 L327.877459,279.803694 L327.877459,279.803694 Z M363.317817,291.399908 L342.550195,291.399908 L342.550195,292.160979 C342.550195,296.472027 344.085611,297.597199 349.160891,297.597199 C353.723522,297.597199 356.508004,297.372164 362.370904,296.360775 L362.370904,305.574534 C356.716603,306.727519 353.770299,307.030936 348.222195,307.030936 C336.062762,307.030936 331.227056,300.636424 331.227056,291.399908 L331.227056,283.834714 C331.227056,275.753078 334.81496,269.132901 347.274649,269.132901 C359.734337,269.132901 363.317817,275.67596 363.317817,283.834714 L363.317817,291.399908 L363.317817,291.399908 Z M400.131769,291.574373 C400.131769,300.502415 397.580538,307.013236 382.122712,307.013236 C376.541105,307.013236 373.266731,306.522712 367.106104,305.574534 L367.106104,254.541709 L378.427347,252.652306 L378.427347,270.503334 C380.873645,269.594347 384.040559,269.132901 386.92302,269.132901 C398.245527,269.132901 400.131769,274.208812 400.131769,282.36567 L400.131769,291.574373 L400.131769,291.574373 Z M436.422958,291.769065 C436.422958,299.470798 433.243402,306.93991 419.939835,306.93991 C406.629947,306.93991 403.390972,299.470798 403.390972,291.769065 L403.390972,284.332823 C403.390972,276.627298 406.629947,269.156921 419.939835,269.156921 C433.243402,269.156921 436.422958,276.627298 436.422958,284.332823 L436.422958,291.769065 L436.422958,291.769065 Z M472.688863,291.769065 C472.688863,299.470798 469.505514,306.93991 456.204476,306.93991 C442.894588,306.93991 439.655613,299.470798 439.655613,291.769065 L439.655613,284.332823 C439.655613,276.627298 442.894588,269.156921 456.204476,269.156921 C469.505514,269.156921 472.688863,276.627298 472.688863,284.332823 L472.688863,291.769065 L472.688863,291.769065 Z M509.906738,306.522712 L497.634789,306.522712 L487.256667,289.197607 L487.256667,306.522712 L475.931631,306.522712 L475.931631,254.541709 L487.256667,252.652306 L487.256667,286.115397 L497.634789,269.665145 L509.906738,269.665145 L498.576646,287.617311 L509.906738,306.522712 L509.906738,306.522712 Z M456.166549,278.591923 C452.32074,278.591923 450.985705,280.694349 450.985705,283.311319 L450.985705,292.863895 C450.985705,295.488451 452.32074,297.597198 456.166549,297.597198 C460.007301,297.597198 461.366356,295.488451 461.366356,292.863895 L461.366356,283.311319 C461.366356,280.694349 460.007301,278.591923 456.166549,278.591923 L456.166549,278.591923 Z" id="path10" sketch:type="MSShapeGroup"></path>
        </g>
    </g>
</svg>