<?xml version="1.0" encoding="UTF-8" standalone="no"?>
<svg width="82px" height="82px" viewBox="0 0 82 82" version="1.1" xmlns="http://www.w3.org/2000/svg" xmlns:xlink="http://www.w3.org/1999/xlink" xmlns:sketch="http://www.bohemiancoding.com/sketch/ns">
    <!-- Generator: Sketch 3.3.1 (12002) - http://www.bohemiancoding.com/sketch -->
    <title>Oval 62 Copy + Shape</title>
    <desc>Created with Sketch.</desc>
    <defs></defs>
    <g id="Page-1" stroke="none" stroke-width="1" fill="none" fill-rule="evenodd" sketch:type="MSPage">
        <g id="Discovery-Map" sketch:type="MSArtboardGroup" transform="translate(-650.000000, -290.000000)">
            <g id="Oval-62-Copy-+-Shape" sketch:type="MSLayerGroup" transform="translate(650.000000, 290.000000)">
                <circle id="Oval-62-Copy" fill-opacity="0.607393569" fill="#000000" sketch:type="MSShapeGroup" cx="41" cy="41" r="41"></circle>
                <path d="M41,21.5 C30.2524141,21.5 21.508798,30.2475556 21.508798,40.9998687 C21.508798,51.7523131 30.2524141,60.5 41,60.5 C51.7475859,60.5 60.491202,51.7523131 60.491202,40.9998687 C60.491202,30.2475556 51.7475859,21.5 41,21.5 L41,21.5 Z M42.3258687,57.7963939 L42.3258687,49.7503131 C42.3258687,49.0182424 41.732202,48.4244444 41,48.4244444 C40.267798,48.4244444 39.6741313,49.0181111 39.6741313,49.7503131 L39.6741313,57.7963939 C31.4434242,57.1519091 24.856101,50.5607778 24.212404,42.3258687 L32.2496869,42.3258687 C32.9817576,42.3258687 33.5755556,41.732202 33.5755556,41 C33.5755556,40.267798 32.9817576,39.6741313 32.2496869,39.6741313 L24.212404,39.6741313 C24.856101,31.4390909 31.4434242,24.8480909 39.6741313,24.2036061 L39.6741313,32.2496869 C39.6741313,32.9817576 40.267798,33.5755556 41,33.5755556 C41.732202,33.5755556 42.3258687,32.9818889 42.3258687,32.2496869 L42.3258687,24.2036061 C50.5567071,24.8480909 57.1440303,31.4392222 57.787596,39.6741313 L49.7503131,39.6741313 C49.0182424,39.6741313 48.4244444,40.267798 48.4244444,41 C48.4244444,41.732202 49.0181111,42.3258687 49.7503131,42.3258687 L57.787596,42.3258687 C57.1437677,50.5609091 50.5564444,57.1519091 42.3258687,57.7963939 L42.3258687,57.7963939 Z" id="Shape" fill="#FFFFFF" sketch:type="MSShapeGroup"></path>
            </g>
        </g>
    </g>
</svg>