<?xml version="1.0" encoding="UTF-8" standalone="no"?>
<svg width="750px" height="1249px" viewBox="0 0 750 1249" version="1.1" xmlns="http://www.w3.org/2000/svg" xmlns:xlink="http://www.w3.org/1999/xlink" xmlns:sketch="http://www.bohemiancoding.com/sketch/ns">
    <!-- Generator: Sketch 3.3.1 (12002) - http://www.bohemiancoding.com/sketch -->
    <title>Group</title>
    <desc>Created with Sketch.</desc>
    <defs>
        <linearGradient x1="50%" y1="65.1722967%" x2="50%" y2="100%" id="linearGradient-1">
            <stop stop-color="#5C4738" offset="0%"></stop>
            <stop stop-color="#4B382A" offset="100%"></stop>
        </linearGradient>
    </defs>
    <g id="Page-1" stroke="none" stroke-width="1" fill="none" fill-rule="evenodd" sketch:type="MSPage">
        <g id="Landing-Screen" sketch:type="MSArtboardGroup" transform="translate(0.000000, -33.000000)">
            <g id="Group" sketch:type="MSLayerGroup" transform="translate(-10.000000, 33.000000)">
                <text id="Copyright-2015-Coffe-Copy" sketch:type="MSTextLayer" font-family="Helvetica" font-size="20" font-weight="normal" fill="#ABABAB">
                    <tspan x="242" y="1244">Copyright 2015 Coffeeshots BV</tspan>
                </text>
                <text id="Get-a-coffee-at-" fill="url(#linearGradient-1)" sketch:type="MSTextLayer" font-family="LUCKY TYPEWRITER" font-size="50" font-weight="normal" sketch:alignment="middle">
                    <tspan x="165.528809" y="857" fill="#FFFFFF">Get a coffee at </tspan>
                    <tspan x="163.124023" y="915" fill="#FFFFFF">a home barista!</tspan>
                </text>
                <text id="COFFEE-SHOTS" fill="url(#linearGradient-1)" sketch:type="MSTextLayer" font-family="Phosphate" font-size="90" font-weight="normal" sketch:alignment="middle">
                    <tspan x="110.86" y="779" fill="#000000">COFFEE SHOTS</tspan>
                </text>
                <g id="Imported-Layers" transform="translate(259.000000, 371.000000)" fill="url(#linearGradient-1)" sketch:type="MSShapeGroup">
                    <path d="M126.196568,183.52873 C94.5833448,183.52873 68.8644056,157.809398 68.8644056,126.196568 C68.8644056,94.5833448 94.5833448,68.8644056 126.196568,68.8644056 C157.809398,68.8644056 183.52873,94.5833448 183.52873,126.196568 C183.52873,157.809398 157.809398,183.52873 126.196568,183.52873 L126.196568,183.52873 Z M126.196568,76.3339844 C98.7022278,76.3339844 76.3339844,98.7022278 76.3339844,126.196568 C76.3339844,153.690515 98.7022278,176.059151 126.196568,176.059151 C153.690515,176.059151 176.059151,153.690515 176.059151,126.196568 C176.059151,98.7022278 153.690515,76.3339844 126.196568,76.3339844 L126.196568,76.3339844 Z" id="Fill-1"></path>
                    <path d="M126.196568,239.45897 C95.9428081,239.45897 67.5002246,227.677479 46.1077441,206.284998 C24.7156568,184.892911 12.9341654,156.449934 12.9341654,126.196568 C12.9341654,95.9428081 24.7156568,67.5002246 46.1077441,46.1077441 C67.5002246,24.7156568 95.9428081,12.9341654 126.196568,12.9341654 C156.449934,12.9341654 184.892911,24.7156568 206.284998,46.1077441 C227.677479,67.5002246 239.45897,95.9428081 239.45897,126.196568 C239.45897,156.449934 227.677479,184.892911 206.284998,206.284998 C184.892911,227.677479 156.449934,239.45897 126.196568,239.45897 L126.196568,239.45897 Z M126.196568,20.4037441 C97.9383651,20.4037441 71.3714321,31.4080062 51.3895226,51.3895226 C31.4080062,71.3714321 20.4037441,97.9383651 20.4037441,126.196568 C20.4037441,154.454771 31.4080062,181.021704 51.3895226,201.00322 C71.3714321,220.984736 97.9383651,231.989392 126.196568,231.989392 C154.454771,231.989392 181.021704,220.984736 201.00322,201.00322 C220.984736,181.021704 231.989392,154.454771 231.989392,126.196568 C231.989392,97.9383651 220.984736,71.3714321 201.00322,51.3895226 C181.021704,31.4080062 154.454771,20.4037441 126.196568,20.4037441 L126.196568,20.4037441 Z" id="Fill-2"></path>
                    <path d="M0.262221529,122.002989 L85.4417598,122.002989 L85.4417598,130.651975 L0.262221529,130.651975 L0.262221529,122.002989 Z" id="Fill-3"></path>
                    <path d="M166.689548,122.002989 L251.869086,122.002989 L251.869086,130.651975 L166.689548,130.651975 L166.689548,122.002989 Z" id="Fill-4"></path>
                    <path d="M124.936175,79.490078 L127.342952,79.490078 L127.342952,96.1429142 L124.936175,96.1429142 L124.936175,79.490078 Z" id="Fill-5"></path>
                    <path d="M124.936175,157.548356 L127.342952,157.548356 L127.342952,170.075232 L124.936175,170.075232 L124.936175,157.548356 Z" id="Fill-6"></path>
                    <path d="M153.002134,125.471626 L170.342565,125.471626 L170.342565,127.878402 L153.002134,127.878402 L153.002134,125.471626 Z" id="Fill-7"></path>
                    <path d="M82.6076443,125.471232 L99.0658783,125.471232 L99.0658783,127.878402 L82.6076443,127.878402 L82.6076443,125.471232 Z" id="Fill-8"></path>
                    <path d="M121.741161,166.636474 L130.390147,166.636474 L130.390147,251.815619 L121.741161,251.815619 L121.741161,166.636474 Z" id="Fill-9"></path>
                    <path d="M121.741161,0.209148206 L130.390147,0.209148206 L130.390147,85.3886864 L121.741161,85.3886864 L121.741161,0.209148206 Z" id="Fill-10"></path>
                    <path d="M125.996855,101.922009 C126.309791,103.728075 126.625479,105.638321 126.846421,107.655108 C126.923476,108.667825 126.934484,109.711601 126.984412,110.773067 C126.992275,111.838465 126.92898,112.938066 126.908537,114.047888 C126.879838,114.590022 126.903819,115.194271 126.834627,115.697092 C126.777622,116.269891 126.720225,116.8478 126.661647,117.428462 C126.549211,118.593716 126.444637,119.776268 126.224087,120.889236 L125.939064,122.595445 C125.815619,123.165491 125.653254,123.739076 125.512512,124.312661 C125.254222,125.4559 124.838284,126.621154 124.486034,127.778546 C124.138109,128.978003 123.743794,130.153086 123.482359,131.383994 C123.343975,131.994927 123.182396,132.600749 123.062883,133.210109 C122.971676,133.820649 122.880075,134.429223 122.789261,135.035438 C122.560456,136.250228 122.505023,137.450864 122.460992,138.636168 C122.432686,139.227051 122.405167,139.816362 122.376861,140.401348 C122.330864,141.063782 122.387869,141.57014 122.388262,142.154733 C122.436225,143.290895 122.394159,144.385778 122.515245,145.497959 C122.660705,146.616431 122.768424,147.715638 122.940225,148.768849 C123.176499,149.809479 123.343189,150.837136 123.617991,151.797173 C123.894365,152.75092 124.161697,153.672824 124.417236,154.557772 C124.514733,154.883289 124.585105,155.176568 124.673167,155.49147 C111.971345,154.499588 101.736449,142.307663 101.380661,127.16093 C101.004431,111.159913 111.792468,97.9273573 125.480275,97.5990889 C125.561261,98.9235632 125.706328,100.379345 125.996855,101.922009" id="Fill-11"></path>
                    <path d="M126.422621,154.263314 C126.113223,152.456855 125.792817,150.546608 125.573841,148.530608 C125.497573,147.523395 125.486958,146.492593 125.436243,145.442527 C125.428381,144.381847 125.486958,143.248437 125.510546,142.124069 C125.538459,141.578396 125.514477,140.943089 125.585635,140.458353 C125.641853,139.895382 125.699644,139.32848 125.756649,138.758041 C125.870658,137.616374 125.964618,136.460949 126.188312,135.319676 C126.486702,133.010789 127.195526,130.740431 127.927544,128.40717 C128.269573,127.206534 128.668605,126.033417 128.929254,124.800936 C129.068424,124.191183 129.228431,123.586933 129.349123,122.974034 C129.440724,122.356811 129.53429,121.740374 129.62707,121.12669 C129.857448,119.883988 129.902658,118.711264 129.948655,117.549941 C129.975388,116.967707 130.003694,116.389404 130.031214,115.81464 C130.079963,115.171076 130.021778,114.633267 130.022172,114.045529 C129.976568,112.894034 130.013523,111.765342 129.892437,110.658665 C129.74619,109.549629 129.640437,108.466147 129.468637,107.417654 C129.233148,106.377023 129.069211,105.348973 128.79205,104.389722 C128.515676,103.435189 128.249129,102.514465 127.992019,101.62873 C127.55839,100.176487 127.23366,98.8559438 126.962396,97.6191388 C139.989735,98.2033385 150.599682,110.56903 150.962153,125.994889 C151.337991,142.000231 140.544842,155.235538 126.852318,155.55791 C126.779588,155.559089 126.708037,155.555551 126.6357,155.556337 C126.573978,155.132537 126.504,154.701267 126.422621,154.263314" id="Fill-12"></path>
                </g>
                <path d="M190.202268,59.500046 C191.053966,58.6702538 191.580184,57.5189395 191.580184,56.2396616 C191.580184,53.7251941 189.544496,51.6856616 187.029548,51.6856616 L162.539631,51.6856616 L156.036827,32.6065344 L164.992208,33.724872 C167.817581,33.724872 170.109568,28.2858798 170.109568,25.457059 C170.109568,22.6282382 167.817581,17.1860201 164.992208,17.1860201 L139.742,20.3363629 C136.913042,20.3363629 134.621055,22.6282382 134.621055,25.4534746 C134.621055,28.278711 136.913042,30.5670019 139.742,30.5670019 L148.879836,31.7072045 L133.148147,77.4095785 C95.9745193,66.9638746 72.3732228,31.1627318 67.5046332,23.1762954 C72.4316516,16.714311 84.5192462,8.74257072 93.6499129,6.66289279 C96.278134,5.836685 97.4255611,5.49329799 97.4255611,2.61322007 C97.4255611,-0.266857855 94.5381742,0.00699149598 94.5381742,0.00699149598 C82.2347873,2.68634215 73.5830218,8.08124604 67.5153869,13.9948149 L36.9141039,13.9948149 C30.5718894,13.9948149 25.4111558,19.1560149 25.4111558,25.5043733 L25.4111558,39.3753447 C25.4111558,45.7168928 28.1415377,50.8813188 34.4866198,50.8813188 L48.3546801,50.8813188 C49.7874405,50.8813188 51.1434908,50.585246 52.408134,50.1067266 C52.0536181,52.394659 51.6772362,54.6169967 51.2567638,56.7479318 C47.9600168,55.8887473 44.51666,55.3844201 40.952861,55.3844201 C18.3710218,55.3880045 0,73.7584928 0,96.3352928 C0,118.912451 18.3710218,137.286166 40.952861,137.286166 C63.5382848,137.286166 81.9057219,118.916036 81.9057219,96.3352928 C81.9057219,79.5731318 71.7735209,65.1469344 57.3100603,58.8129136 C58.0846901,54.9055421 58.7718559,50.7314902 59.3274673,46.3054538 C66.0532328,55.1543006 82.534459,74.1018798 98.1750988,86.9272772 C98.0327906,87.7312616 97.9231022,88.5431318 97.9231022,89.3833188 C97.9231022,93.659885 99.8275946,97.4575733 102.795276,100.09642 L100.861749,102.826669 L98.0399598,106.576685 L95.0941441,102.804804 L92.6082312,104.741823 L96.0770385,109.18614 L95.919675,109.401921 L101.304087,115.871433 L103.756663,113.897854 L100.050556,109.153521 L105.284415,101.876441 C107.371722,103.057147 109.754757,103.780482 112.320606,103.780482 C116.374419,103.780482 120.025682,102.091864 122.643149,99.3945915 L131.631149,99.412872 C133.213745,120.55734 150.882905,137.290108 172.427005,137.290108 C195.008844,137.290108 213.383451,118.919979 213.383451,96.3392357 C213.379866,80.1290746 203.894683,66.133724 190.202268,59.500046 L190.202268,59.500046 Z M169.323826,61.8356512 L169.323826,71.5727162 L166.15469,62.2776097 C167.199956,62.0876357 168.252392,61.9378071 169.323826,61.8356512 L169.323826,61.8356512 Z M150.331236,45.9104512 L155.704178,58.9957188 C150.886848,61.159272 146.566342,64.2221551 142.951283,67.979698 L150.331236,45.9104512 L150.331236,45.9104512 Z M158.102268,64.8218279 L169.323826,92.1612408 L169.323826,93.1810071 L137.936442,93.1810071 C139.084228,80.5455837 147.0413,69.8694019 158.102268,64.8218279 L158.102268,64.8218279 Z M48.3546801,46.0201344 L34.4866198,46.0201344 C30.824603,46.0201344 30.2689916,43.041485 30.2689916,39.3789292 L30.2689916,34.8722434 L54.7072898,34.8722434 C54.0968342,36.868046 53.8667035,38.1437395 53.8523652,38.2458954 C53.6838894,40.1538798 53.4756248,41.995911 53.2673601,43.8124928 C52.0500335,45.157724 50.3104322,46.0201344 48.3546801,46.0201344 L48.3546801,46.0201344 Z M75.611541,96.3317084 C75.611541,115.440228 60.0694774,130.977594 40.9603886,130.977594 C21.8505829,130.977594 6.30887772,115.440228 6.30887772,96.3317084 C6.30887772,77.2231889 21.854526,61.6818798 40.9603886,61.6818798 C44.0743216,61.6818798 47.0789246,62.1388928 49.9519732,62.910259 C44.7908811,84.9060253 37.1223685,97.0080876 37.0202077,97.165085 L42.3053266,100.593579 C42.7437219,99.9136149 50.6061608,87.5925447 55.9428978,65.1433499 C67.5515913,70.742924 75.611541,82.6033967 75.611541,96.3317084 L75.611541,96.3317084 Z M56.5056784,30.0078331 L30.2689916,30.0078331 L30.2689916,25.5083162 C30.2689916,21.8421759 33.2513702,18.8635266 36.9141039,18.8635266 L63.1507906,18.8635266 C60.0440268,22.810685 57.9169313,26.736337 56.5056784,30.0078331 L56.5056784,30.0078331 Z M60.6874606,36.5974227 C61.2029246,34.7919525 62.1456717,32.1348253 63.7465494,29.0902227 C69.8765561,38.6699318 86.2337554,61.2291681 111.337353,75.0922538 C107.097501,75.3847421 103.380281,77.4902279 100.938459,80.6699629 C85.2651993,67.0255266 67.7089548,46.243085 60.6874606,36.5974227 L60.6874606,36.5974227 Z M131.634734,93.1810071 L126.144935,93.1810071 C126.480811,91.964098 126.714884,90.706685 126.714884,89.3833188 C126.714884,86.2035837 125.651337,83.2905292 123.907792,80.9147785 C126.978352,82.0736201 130.110566,83.144285 133.385806,83.9851889 C132.453454,86.9197499 131.883146,90.0048564 131.634734,93.1810071 L131.634734,93.1810071 Z M172.427005,130.977594 C154.362824,130.977594 139.500757,117.074004 137.932499,99.4168149 L178.724771,99.4824097 L178.724771,95.2864928 L178.772446,95.2864928 L178.772446,62.2958902 C194.851481,65.2895941 207.078157,79.4053811 207.078157,96.3352928 C207.078157,115.440228 191.536094,130.977594 172.427005,130.977594 L172.427005,130.977594 Z" id="Imported-Layers" fill="#DAD8D0" sketch:type="MSShapeGroup"></path>
                <path d="M100.484625,284.792465 C91.700102,284.792465 84.5127652,291.979802 84.5127652,300.764325 L84.5127652,333.107341 C84.5127652,341.891864 91.700102,349.079201 100.484625,349.079201 C109.269148,349.079201 116.456798,341.891864 116.456798,333.107341 L116.456798,300.764325 C116.456798,291.979802 109.269461,284.792465 100.484625,284.792465" id="Fill-1" fill="#DAD8D0" sketch:type="MSShapeGroup"></path>
                <path d="M158.38293,186.964825 L127.6371,186.964825 C124.043118,175.385226 113.262426,167 100.484625,167 C87.7068239,167 76.9261318,175.385226 73.3324633,186.964825 L42.9859299,186.964825 C38.5936684,186.964825 35,190.558493 35,194.950755 C35,199.343016 38.5936684,202.936684 42.9859299,202.936684 L73.7317598,202.936684 C75.7282423,209.724725 80.1205037,215.314876 86.1099511,218.908544 C64.5479405,225.297288 48.5760808,245.262113 48.5760808,268.820606 L48.5760808,310.746738 C48.5760808,317.934074 54.5655282,323.923522 61.752865,323.923522 L72.5338704,323.923522 L72.5338704,301.163622 C72.5338704,285.590745 85.3113581,272.813571 100.883921,272.813571 C116.456798,272.813571 129.233972,285.591058 129.233972,301.163622 L129.233972,323.923522 L140.014978,323.923522 C147.202315,323.923522 153.191762,317.934074 153.191762,310.746738 L153.191762,269.219589 C153.191762,245.661096 137.219902,225.297288 115.657578,219.307841 C121.647026,215.714172 126.039287,210.124021 128.03577,203.335981 L158.7816,203.335981 C163.173861,203.335981 166.76753,199.742312 166.76753,195.350051 C166.368859,190.558493 162.774878,186.964825 158.38293,186.964825 L158.38293,186.964825 Z M100.484625,211.321911 C91.700102,211.321911 84.5127652,204.134574 84.5127652,195.350051 C84.5127652,186.565528 91.700102,179.378191 100.484625,179.378191 C109.269148,179.378191 116.456798,186.565528 116.456798,195.350051 C116.855781,204.134574 109.668757,211.321911 100.484625,211.321911 L100.484625,211.321911 Z" id="Fill-2" fill="#DAD8D0" sketch:type="MSShapeGroup"></path>
                <path d="M275.674814,147.831864 L267.917651,149.440678 C267.905512,149.511864 267.917651,149.587119 267.901465,149.656271 L266.857465,159.056949 C268.929279,157.976949 271.098209,158.145763 272.346558,159.571525 C273.552419,160.944407 273.946953,163.332203 273.526116,166.667797 C272.401186,175.553898 272.018791,181.669831 272.014744,181.730847 C271.786116,188.684746 270.703674,191.800678 268.510465,191.800678 C267.84886,191.800678 267.252,191.469153 266.746186,191.033898 L265.999605,196.36678 L274.956558,195.122034 L283.569558,157.458305 L275.674814,147.831864" id="Fill-1" fill="#DAD8D0" sketch:type="MSShapeGroup"></path>
                <path d="M217.38886,198.573559 L257.853977,198.573559 L257.853977,206.709153 L217.38886,206.709153 L217.38886,198.573559 Z" id="Fill-2" fill="#DAD8D0" sketch:type="MSShapeGroup"></path>
                <path d="M259.436163,208.743051 L216.395442,208.743051 C215.818814,208.743051 215.177442,209.094915 215.04593,209.875932 L209.93114,243.748475 C209.846163,244.256949 209.987791,244.856949 210.269023,245.190508 C210.311512,245.239322 210.416721,245.35322 210.509791,245.35322 L210.938721,245.450847 L223.683209,251.454915 L252.731093,251.454915 L265.085093,245.35322 L265.315744,245.35322 C265.360256,245.35322 265.493791,245.35322 265.647558,245.172203 C265.870116,244.905763 265.969256,244.462373 265.898442,244.037288 L260.777581,209.59322 C260.684512,209.04 260.235349,208.743051 259.436163,208.743051" id="Fill-3" fill="#DAD8D0" sketch:type="MSShapeGroup"></path>
                <path d="M237.263302,151.183729 C231.586047,151.183729 214.109163,150.915254 211.327186,147.728136 L210.509791,147.728136 C210.467302,147.728136 210.331744,147.728136 210.18,147.909153 C210.175953,147.915254 210.175953,147.925424 210.169884,147.931525 L207.883605,148.586441 L199.432465,151.010847 C199.432465,151.010847 203.541698,159.272542 209.613488,164.678644 C210.331744,165.317288 211.072256,165.919322 211.843116,166.460339 L215.056047,195.730169 C215.14507,196.250847 215.600302,196.539661 216.397465,196.539661 L259.440209,196.539661 C260.012791,196.539661 260.662256,196.189831 260.789721,195.412881 L265.898442,149.371525 C265.944977,149.072542 265.912605,148.769492 265.843814,148.490847 C259.492814,151.147119 238.317419,151.183729 237.263302,151.183729" id="Fill-4" fill="#DAD8D0" sketch:type="MSShapeGroup"></path>
                <path d="M265.222674,146.727458 C263.152884,145.470508 255.140791,143.308475 245.07914,142.659661 L241.807535,145.694237 L235.863209,145.694237 L232.308349,142.734915 C222.621,143.485424 215.049977,145.600678 213.241186,146.79661 C215.248256,147.856271 223.946233,149.149831 237.265326,149.149831 C250.329488,149.149831 262.38607,147.888814 265.222674,146.727458" id="Fill-5" fill="#DADADA" sketch:type="MSShapeGroup"></path>
                <path d="M241.020488,143.660339 L243.691186,141.181017 L243.691186,134.43661 L238.90214,132.543051 L233.574907,134.461017 L233.574907,141.148475 L236.593605,143.660339 L241.020488,143.660339" id="Fill-6" fill="#DAD8D0" sketch:type="MSShapeGroup"></path>
                <path d="M304.740099,30.6825576 C304.740099,30.6825576 282.897788,31.4167481 274.487378,31.4167481 C266.083185,31.4167481 244.260373,30.6825576 244.260373,30.6825576 C242.396071,30.6201033 241.007665,32.0884845 241.175246,33.9462862 L246.218779,89.9408937 C246.38636,91.7984128 248.045778,93.4210927 249.906688,93.5462838 C249.906688,93.5462838 267.496176,94.7312187 274.487378,94.7312187 C281.484796,94.7312187 299.093783,93.5462838 299.093783,93.5462838 C300.954694,93.4213753 302.614111,91.7984128 302.781692,89.9408937 L307.824943,33.9462862 C307.992524,32.0884845 306.604118,30.6201033 304.740099,30.6825576 L304.740099,30.6825576 Z M300.95865,45.0218818 L299.510333,73.0064686 C299.439684,74.0919289 298.494675,75.051633 297.410345,75.1386733 C297.410345,75.1386733 280.890774,76.4677335 274.726738,76.4677335 C268.449381,76.4677335 251.589562,75.1361299 251.589562,75.1361299 C250.504666,75.0505026 249.559657,74.0916463 249.489573,73.006186 L248.041256,45.0215992 C247.970889,43.9355736 248.800881,43.1140601 249.885493,43.1951659 C249.885493,43.1951659 267.792057,44.5349648 274.418424,44.5349648 C281.085485,44.5349648 299.113283,43.1940355 299.113283,43.1940355 C300.199026,43.1137775 301.028735,43.9355736 300.95865,45.0218818 L300.95865,45.0218818 Z" id="Fill-2" fill="#DAD8D0" sketch:type="MSShapeGroup"></path>
                <path d="M286.174516,56.7002597 C285.333503,57.7258092 284.210175,58.7584236 282.25092,59.7831254 C280.280362,60.813479 277.660957,61.6033415 274.241517,61.6567526 C267.850837,61.7632922 265.053679,64.3807183 263.838788,65.9946377 C263.585015,66.3320601 263.743835,66.7042422 263.760226,66.732502 C266.240027,71.2331638 273.063364,72.0510035 279.173707,68.8565114 C284.506055,66.0686784 287.497642,60.9485611 286.432528,56.7152374 C286.362444,56.435465 286.174516,56.7002597 286.174516,56.7002597" id="Fill-4" fill="#DAD8D0" sketch:type="MSShapeGroup"></path>
                <path d="M393.05265,114.700141 L408.758324,146.638395 C409.396991,147.937327 408.725491,149 407.266323,149 L308.733608,149 C307.274441,149 306.60294,147.937327 307.241774,146.638395 L322.947448,114.700141 C323.197282,114.192315 323.868782,113.776551 324.439449,113.776551 L337.906123,113.776551 C338.321289,113.776551 338.88179,114.033764 339.153456,114.344432 C340.066957,115.389451 340.997624,116.410712 341.925791,117.421579 C342.807125,118.380806 343.693125,119.352736 344.572126,120.347435 L328.590285,120.347435 C328.019451,120.347435 327.347951,120.763199 327.098284,121.271355 L316.693945,142.429281 L399.305486,142.429281 L388.901981,121.271355 C388.652314,120.763199 387.980981,120.347435 387.40998,120.347435 L371.391972,120.347435 C372.27064,119.352736 373.156973,118.380806 374.038307,117.421579 C374.969308,116.407742 375.905141,115.388461 376.820975,114.343112 C377.092309,114.033269 377.651476,113.776551 378.065976,113.776551 L391.560982,113.776551 C392.131483,113.776551 392.802816,114.191985 393.05265,114.700141 L393.05265,114.700141 Z M381.090144,92.8740225 C381.090144,110.325546 366.413803,113.598531 359.511467,130.369489 C358.950633,131.732271 357.012632,131.725341 356.451632,130.36289 C350.225129,115.241789 337.678456,111.095204 335.278121,97.6244546 C332.914453,84.3630721 342.189958,71.372761 355.732965,70.1055061 C369.506138,68.8166381 381.090144,79.5062242 381.090144,92.8740225 L381.090144,92.8740225 Z M370.185638,92.8740225 C370.185638,86.2026622 364.722636,80.7944322 357.982966,80.7944322 C351.243629,80.7944322 345.78046,86.2026622 345.78046,92.8740225 C345.78046,99.5455477 351.243629,104.953613 357.982966,104.953613 C364.722636,104.953613 370.185638,99.5455477 370.185638,92.8740225 L370.185638,92.8740225 Z" id="Imported-Layers" fill="#DAD8D0" sketch:type="MSShapeGroup"></path>
                <path d="M501.761734,22.1578247 L501.761734,9.11689691 L410.151256,9.11689691 L410.151256,80.842 C410.151256,80.842 410.151256,93.8829278 423.238442,93.8829278 L505.033442,93.8829278 C505.033442,93.8829278 514.848744,93.6808557 514.848744,80.842 L514.848744,22.1578247 L501.761734,22.1578247 L501.761734,22.1578247 Z M423.238442,87.3624639 C416.694849,87.3624639 416.694849,80.842 416.694849,80.842 L416.694849,15.6373608 L495.217965,15.6373608 L495.217965,80.842 C495.217965,83.844866 496.147312,85.9248247 497.429824,87.3624639 L423.238442,87.3624639 L423.238442,87.3624639 Z" id="Fill-1" fill="#DAD8D0" sketch:type="MSShapeGroup"></path>
                <path d="M459.228116,67.8012474 L482.130779,67.8012474 L482.130779,74.3217113 L459.228116,74.3217113 L459.228116,67.8012474 Z" id="Fill-3" fill="#DAD8D0" sketch:type="MSShapeGroup"></path>
                <path d="M423.238442,41.7192165 L452.684523,41.7192165 L452.684523,74.3215361 L423.238442,74.3215361 L423.238442,41.7192165 Z" id="Fill-6" fill="#DAD8D0" sketch:type="MSShapeGroup"></path>
                <path d="M421.299404,259.411667 L417.633043,245.28859 L417.633043,198.120128 C417.633043,191.799615 412.430447,186.603718 406.072936,186.603718 L336.933638,186.603718 C330.573936,186.603718 325.373532,191.799615 325.373532,198.120128 L325.373532,245.284231 L321.700596,259.409487 C320.67717,261.793846 320.848106,264.596667 322.149851,266.811026 C323.453787,269.034103 325.711021,270.391923 328.137,270.391923 L414.871766,270.391923 C417.295553,270.391923 419.550596,269.034103 420.85234,266.811026 C422.154085,264.594487 422.325021,261.793846 421.299404,259.411667 L421.299404,259.411667 Z M334.277553,198.120128 C334.277553,196.66859 335.467532,195.461154 336.931447,195.461154 L406.075128,195.461154 C407.539043,195.461154 408.731213,196.66859 408.731213,198.120128 L408.731213,245.284231 C408.731213,246.740128 407.539043,247.893077 406.075128,247.893077 L336.933638,247.893077 C335.469723,247.893077 334.277553,246.740128 334.277553,245.284231 L334.277553,198.120128 L334.277553,198.120128 Z" id="Fill-1" fill="#DAD8D0" sketch:type="MSShapeGroup"></path>
                <path d="M360.268617,219.285128 C359.466532,219.779872 358.934,220.612436 358.826617,221.547436 C358.717043,222.480256 359.041383,223.410897 359.709787,224.08 L359.983723,224.350256 C360.994,225.357179 362.569681,225.542436 363.785957,224.799231 C368.287277,222.050897 374.055277,222.153333 378.451404,225.113077 C379.678638,225.939103 381.326638,225.788718 382.371979,224.744744 L382.648106,224.467949 C383.30117,223.820641 383.627702,222.918333 383.542234,222.005128 C383.456766,221.094103 382.963681,220.265897 382.205426,219.747179 C375.637532,215.287949 366.985532,215.137564 360.268617,219.285128" id="Fill-2" fill="#DAD8D0" sketch:type="MSShapeGroup"></path>
                <path d="M350.823298,210.296923 C350.117638,210.839615 349.67934,211.656923 349.622362,212.539615 C349.563191,213.420128 349.889723,214.291923 350.520872,214.919615 L350.794809,215.192051 C351.892745,216.283974 353.630596,216.392949 354.862213,215.45359 C364.460936,208.134872 377.984617,208.252564 387.438702,215.839359 C388.668128,216.828846 390.449809,216.737308 391.567468,215.625769 L392.882362,214.315897 C393.222043,213.982436 393.406128,213.518205 393.390787,213.040897 C393.373255,212.56359 393.162872,212.114615 392.80566,211.800769 C380.954085,201.289103 363.246851,200.796538 350.823298,210.296923" id="Fill-3" fill="#DAD8D0" sketch:type="MSShapeGroup"></path>
                <path d="M371.182234,228.5 C374.436596,228.5 377.072957,231.124103 377.072957,234.360641 C377.072957,237.595 374.436596,240.216923 371.182234,240.216923 C367.927872,240.216923 365.291511,237.595 365.291511,234.360641 C365.291511,231.124103 367.927872,228.5 371.182234,228.5" id="Fill-4" fill="#DAD8D0" sketch:type="MSShapeGroup"></path>
                <path d="M506.984793,195.116768 C515.266677,181.623505 527,171.244072 540.113141,165.708374 C528.725449,143.911565 508.020062,131.110264 488.349945,132.494188 C497.322279,142.52764 504.913984,159.826695 506.294614,188.543127 C506.639433,190.964995 506.984793,193.040881 506.984793,195.116768 Z M489.384944,189.58107 C488.004855,157.750809 477.997252,144.603527 470.060187,139.067829 C450.73516,151.86913 443.488275,181.277524 453.495878,208.956012 C461.432943,230.407112 477.652162,245.284028 494.906651,250.127763 C493.871382,241.824217 493.871382,233.174418 495.596831,224.52489 C492.491023,214.49171 490.075394,203.074333 489.384944,189.58107 Z M583.939813,178.163694 C576.002748,183.699391 565.994874,196.846673 564.615056,228.330954 C563.234426,257.047385 554.607182,276.768308 543.564309,290.261571 C544.944939,290.261571 546.325027,290.607552 547.705657,290.607552 C569.101223,290.607552 590.841879,273.654749 600.504122,248.051605 C610.511725,220.027679 603.26484,190.964995 583.939813,178.163694 Z M565.304965,171.936034 L561.854067,171.936034 C540.458772,171.936034 518.717575,188.543127 509.055332,214.49171 C498.702638,242.51645 506.294614,271.578591 525.61937,284.379621 C536.317424,273.308497 545.980208,256.009442 547.015207,227.984973 C548.740656,198.92256 556.332631,181.969486 565.304965,171.936034 Z" id="Fill-1" fill="#DAD8D0" sketch:type="MSShapeGroup"></path>
                <path d="M625.623116,27.3230009 L588.63589,38.5390143 C584.15484,39.8061835 580.52274,44.4390394 580.52274,48.8805386 L580.52274,87.0162086 L580.52274,87.5508401 C580.52274,87.5508401 577.842873,85.7590059 571.873646,86.5970461 C563.107912,87.8311835 556,94.5000528 556,101.495681 C556,108.491309 563.107912,112.777616 571.873646,111.543478 C580.645989,110.316033 587.074597,103.851761 587.074597,96.8530009 L587.074597,63.8351282 C587.074597,60.7334113 590.836552,59.4035955 590.836552,59.4035955 L623.539094,49.2434615 C623.539094,49.2434615 627.157834,48.0390813 627.157834,51.3586374 L627.157834,77.8592739 L627.157834,77.8790645 C627.157834,77.8790645 623.825381,75.9783108 617.856011,76.6977496 C609.09042,77.7504967 601.982652,84.2806893 601.982652,91.2729004 C601.982652,98.2718032 609.09042,102.700204 617.856011,101.644182 C626.628497,100.591435 633.736265,94.0646592 633.736265,87.065614 L633.736265,33.0712505 C633.736265,28.6297513 630.100862,26.0558317 625.623116,27.3230009" id="Imported-Layers" fill="#DAD8D0" sketch:type="MSShapeGroup"></path>
                <path d="M663.92955,198.743949 L658.899413,193.665605 C640.216047,176.979618 628,165.734713 628,151.950637 C628,140.705732 636.623092,132 647.761252,132 C653.869276,132 659.977299,134.901911 663.92955,139.617516 C667.8818,134.901911 673.989683,132 680.097847,132 C691.236008,132 699.8591,140.705732 699.8591,151.950637 C699.8591,165.734713 687.643053,176.979618 668.959687,193.665605 L663.92955,198.743949" id="Imported-Layers" fill="#DAD8D0" sketch:type="MSShapeGroup"></path>
                <path d="M771.313058,63.9530318 C770.785538,63.9530318 770.29727,64.0669012 769.782956,64.1151759 C770.306074,60.8968007 770.650356,60.5201843 770.715838,57.1269514 C770.715838,57.1488777 770.702631,57.170804 770.702631,57.2013903 C770.741884,56.8992127 770.802963,56.5972194 770.807365,56.2906198 C770.005446,39.3673869 749.754427,29.6689615 726.93624,29.4675712 C704.113651,29.6689615 683.871619,39.3673869 683.052275,56.2906198 C683.073919,56.5972194 683.143802,56.8992127 683.161228,57.2013903 L683.161228,57.1969682 C683.836769,87.5142211 703.154907,111.841541 726.932021,111.841541 C739.951464,111.841541 751.620007,104.507471 759.635711,92.9348074 C762.49085,96.1968509 766.631591,98.2853769 771.308473,98.2853769 C779.939005,98.2853769 786.943506,88.3418928 786.943506,79.6635008 C786.943323,70.9983752 779.943224,63.9530318 771.313058,63.9530318 L771.313058,63.9530318 Z M755.281284,67.9902345 C748.276783,71.9966667 738.072861,74.6630151 726.744564,74.649933 C715.403062,74.6676214 705.194737,71.9966667 698.181616,67.9902345 C691.072381,63.9311055 687.720353,58.9529146 687.781432,54.5479397 C687.716134,50.1037186 691.085404,45.1295812 698.181616,41.0750586 C705.194737,37.0599665 715.403062,34.4022781 726.744564,34.419598 C738.072861,34.3976717 748.276783,37.0599665 755.281284,41.0750586 C762.390519,45.1340034 765.759788,50.1037186 765.69449,54.5479397 C765.759788,58.9529146 762.390519,63.9311055 755.281284,67.9902345 L755.281284,67.9902345 Z M771.313058,89.7693132 C768.000282,89.7647069 765.3326,87.4617085 764.521877,84.3966332 C765.650836,81.931675 766.649016,76.4233836 767.498991,73.7435846 C768.623549,73.0211223 769.874667,72.4869682 771.313058,72.469464 C775.253319,72.4869682 778.456959,75.7053434 778.465764,79.6635008 C778.452557,83.6303183 775.253319,89.7647069 771.313058,89.7693132 Z M751.715937,42.3318593 C745.587457,38.8288107 736.656296,36.5038861 726.740162,36.5127303 C716.815224,36.5038861 707.875443,38.8288107 701.738159,42.3318593 C695.531358,45.8872362 692.580473,50.2437521 692.632931,54.1320771 C692.584875,57.9894472 695.518335,62.3463317 701.738159,65.9015243 C701.738159,65.9015243 710.416564,47.6516583 724.351464,61.3959464 C738.282145,75.1404188 731.212346,46.8636013 742.383817,57.8055611 C753.555287,68.7432831 760.834554,54.1320771 760.834554,54.1320771 C760.891048,50.2395142 757.944564,45.8872362 751.715937,42.3318593 Z M716.156924,9.96551089 C716.714892,10.420804 717.29909,10.7535678 717.835231,11.1038358 C718.877065,11.7957119 720.031887,12.4698995 720.812162,13.301809 C721.217524,13.7134338 721.553185,14.1775712 721.849778,14.6022781 C722.141601,15.0356449 722.390138,15.4472697 722.546963,15.8763987 C722.856578,16.7171524 722.804303,17.5184757 722.63849,18.4379062 C722.320437,20.3119598 721.178272,22.4049079 720.053898,24.7036683 L720.241171,24.9269849 C721.514116,24.4759296 722.581996,23.7096147 723.540741,22.768258 C724.482243,21.8138191 725.292966,20.6360637 725.70273,19.1515243 C726.125517,17.7023618 725.859739,15.8939028 725.014166,14.5759296 C724.203443,13.209866 722.930497,12.4085427 721.692769,11.9401675 C721.069503,11.6818425 720.43303,11.5021943 719.901291,11.2788777 C719.351944,11.0424791 718.842032,10.7316415 718.406222,10.3375209 C717.512593,9.57139028 717.111633,8.31901173 717.216183,7.59654941 C717.251034,7.23319933 717.316515,6.93102178 717.438674,6.52824121 C717.573672,6.14720268 717.800198,5.71383585 718.092388,5.27586265 C718.663379,4.38701843 719.435034,3.47643216 720.210723,2.42120603 L720.079944,2.15827471 C719.391196,2.19770519 718.746286,2.38177554 718.136042,2.64452261 C717.512593,2.89824121 716.932981,3.25735343 716.39684,3.71706868 C715.860698,4.18562814 715.36381,4.76805695 715.019344,5.51244556 C714.67066,6.24798995 714.535661,7.20242881 714.801439,8.04318258 C715.062998,8.88393635 715.599139,9.51887772 716.156924,9.96551089 Z M727.677263,15.3641709 C728.108854,15.6575042 728.522836,15.8413903 728.884727,16.060469 C729.590899,16.4849916 730.349347,16.9798995 730.76333,17.5929146 C731.207944,18.2145896 731.473721,18.8101005 731.608903,19.2434673 C731.713453,19.7120268 731.626328,20.0536348 731.569651,20.5614405 C731.508755,21.0519263 731.338723,21.6780235 731.129439,22.3743216 C730.911534,23.0790955 730.63255,23.819062 730.392818,24.7080905 L730.584677,24.9269849 C731.530399,24.7561809 732.315076,24.3095477 733.021249,23.7226968 C733.718617,23.1273702 734.324459,22.3260469 734.629489,21.2752429 C734.947725,20.2330988 734.72982,18.8845394 734.080325,17.9474204 C733.474483,16.9668174 732.52436,16.4588275 731.643753,16.2222446 C731.203541,16.0910553 730.754526,16.0033501 730.410243,15.8808208 C730.052755,15.7538693 729.725898,15.561139 729.464339,15.2941541 C728.89775,14.781742 728.828049,13.8578894 729.015506,13.5734003 C729.089425,13.4201005 729.120056,13.3323953 729.154907,13.1354271 C729.211584,12.9428811 729.311732,12.6932161 729.447097,12.4129648 C729.734702,11.8349581 730.148868,11.1869347 730.549644,10.3332831 L730.418864,10.070536 C729.917757,10.000335 729.46012,10.0747739 729.015506,10.2061474 C728.562088,10.328861 728.143704,10.5477554 727.755767,10.8541709 C727.363429,11.1607705 726.997319,11.5635511 726.740162,12.1109715 C726.469982,12.6362814 726.374053,13.3718258 726.59636,14.0067672 C726.823069,14.6503685 727.258878,15.0839196 727.677263,15.3641709 Z" id="Fill-1" fill="#DAD8D0" sketch:type="MSShapeGroup"></path>
                <path d="M685.544868,269.765205 L724.335321,269.765205 L724.335321,255.575005 L685.544868,255.575005 L685.544868,269.765205 Z M685.544868,287.411294 L724.335321,287.411294 L724.335321,273.220857 L685.544868,273.220857 L685.544868,287.411294 Z M685.544868,305.097066 L724.335321,305.097066 L724.335321,290.907579 L685.544868,290.907579 L685.544868,305.097066 Z M724.626678,227.432459 L715.991771,227.432459 L715.991771,220.964071 L693.443927,220.964071 L693.443927,227.432459 L685.253748,227.432459 C679.924593,227.432459 675.590454,231.784636 675.590454,237.134564 L675.590454,323.376402 C675.590454,328.725142 679.925777,333.078271 685.253748,333.078271 L724.626678,333.078271 C729.957489,333.078271 734.290918,328.725142 734.290918,323.376402 L734.290918,237.134327 C734.290918,231.784636 729.957489,227.432459 724.626678,227.432459 L724.626678,227.432459 Z M727.849117,323.377353 C727.849117,325.159474 726.403694,326.610596 724.626678,326.610596 L685.253748,326.610596 C683.476732,326.610596 682.031545,325.162325 682.031545,323.377353 L682.031545,237.134327 C682.031545,235.351968 683.476732,233.900133 685.253748,233.900133 L724.626678,233.900133 C726.403694,233.900133 727.849117,235.35173 727.849117,237.134327 L727.849117,323.377353 L727.849117,323.377353 Z M685.544868,322.782837 L724.335321,322.782837 L724.335321,308.592637 L685.544868,308.592637 L685.544868,322.782837 Z" id="Imported-Layers" fill="#DAD8D0" sketch:type="MSShapeGroup"></path>
            </g>
        </g>
    </g>
</svg>