<?xml version="1.0" encoding="UTF-8" standalone="no"?>
<svg width="433px" height="289px" viewBox="0 0 433 289" version="1.1" xmlns="http://www.w3.org/2000/svg" xmlns:xlink="http://www.w3.org/1999/xlink" xmlns:sketch="http://www.bohemiancoding.com/sketch/ns">
    <!-- Generator: Sketch 3.3.1 (12002) - http://www.bohemiancoding.com/sketch -->
    <title>Paypal Card</title>
    <desc>Created with Sketch.</desc>
    <defs></defs>
    <g id="Page-1" stroke="none" stroke-width="1" fill="none" fill-rule="evenodd" sketch:type="MSPage">
        <g id="Paypal-payment" sketch:type="MSArtboardGroup" transform="translate(-158.000000, -89.000000)">
            <g id="Paypal-Card" sketch:type="MSLayerGroup" transform="translate(158.000000, 89.000000)">
                <path d="M432.804884,198.319049 L432.804884,252.406063 C432.804884,257.367645 431.788049,262.098456 429.956302,266.403782 C428.117343,270.709108 425.477897,274.603373 422.211041,277.870229 C418.944186,281.137084 415.057132,283.776531 410.744595,285.615489 C406.424845,287.447236 401.701246,288.464072 396.746875,288.464072 L234.795934,288.464072 L72.8449926,288.464072 L432.804884,198.319049 L432.804884,198.319049 Z" id="Shape" fill="#113984" sketch:type="MSShapeGroup"></path>
                <path d="M396.746875,7.21160179 C412.655669,7.21160179 425.593283,20.1492154 425.593283,36.058009 L425.593283,252.406063 C425.593283,268.314856 412.655669,281.25247 396.746875,281.25247 L36.1667858,281.25247 C20.2579923,281.25247 7.32037868,268.314856 7.32037868,252.406063 L7.32037868,36.058009 C7.32037868,20.1492154 20.2579923,7.21160179 36.1667858,7.21160179 L396.746875,7.21160179 L396.746875,7.21160179 Z M396.746875,0 L36.1667858,0 C16.3348809,0 0.108776884,16.226104 0.108776884,36.058009 L0.108776884,252.406063 C0.108776884,272.237968 16.3348809,288.464072 36.1667858,288.464072 L396.746875,288.464072 C416.57878,288.464072 432.804884,272.237968 432.804884,252.406063 L432.804884,36.058009 C432.804884,16.226104 416.57878,0 396.746875,0 L396.746875,0 L396.746875,0 Z" id="Shape" fill="#009EE3" sketch:type="MSShapeGroup"></path>
                <g id="paypal-seeklogo.com" transform="translate(38.000000, 89.000000)" sketch:type="MSShapeGroup">
                    <g id="Group">
                        <path d="M31.3914877,20.0059854 L55.7429102,20.0059854 C68.8161496,20.0059854 73.7387271,26.6154307 72.9788451,36.342219 C71.7255739,52.3765109 62.0186937,61.2432993 49.1440669,61.2432993 L42.6439014,61.2432993 C40.8796426,61.2432993 39.6923662,62.4083796 39.2121761,65.5740584 L36.4234278,83.9560876 C36.2424137,85.1500438 35.6138926,85.8512263 34.6685968,85.9359708 L19.3993046,85.9359708 C17.9625053,85.9359708 17.4515176,84.8380584 17.8273732,82.4601898 L27.1521127,23.4943212 C27.5260827,21.1308905 28.8202077,20.0059854 31.3914877,20.0059854 L31.3914877,20.0059854 Z" id="Shape" fill="#009EE3"></path>
                        <path d="M137.102456,18.9162336 C145.319741,18.9162336 152.899077,23.365635 151.861389,34.4615182 C150.631373,47.6151241 143.533484,54.9401898 132.37032,54.9703212 L122.632014,54.9703212 C121.227898,54.9703212 120.553495,56.1096642 120.184553,58.4567737 L118.305275,70.4283504 C118.021812,72.2356058 117.094743,73.1282482 115.719539,73.1282482 L106.650607,73.1282482 C105.203752,73.1282482 104.699678,72.2048467 105.022109,70.1408467 L112.519109,22.1534745 C112.887423,19.7938102 113.791864,18.9162336 115.393336,18.9162336 L137.102456,18.9162336 L137.102456,18.9162336 Z M122.329695,44.6032409 L129.717333,44.6044964 C134.335077,44.4306131 137.40666,41.2360584 137.715264,35.4721752 C137.905706,31.9122774 135.499727,29.3661752 131.667634,29.3837518 L124.713048,29.4151387 L122.329695,44.6032409 L122.329695,44.6032409 Z M176.51513,69.449708 C177.343521,68.6989343 178.188882,68.3059708 178.06632,69.2343942 L177.772173,71.4578394 C177.618813,72.6166423 178.080776,73.236219 179.163718,73.236219 L187.220731,73.236219 C188.575822,73.236219 189.238283,72.6875766 189.572657,70.5928175 L194.537974,39.4683504 C194.786868,37.9046569 194.408498,37.137562 193.218708,37.137562 L184.36096,37.137562 C183.561481,37.137562 183.17494,37.5857664 182.965643,38.8042044 L182.636926,40.7200584 C182.46534,41.7200438 182.007776,41.8932993 181.581639,40.8870365 C180.07696,37.3315328 176.243609,35.737708 170.867868,35.8481898 C158.439491,36.1030511 150.061305,45.5260146 149.165033,57.6043066 C148.471775,66.9475474 155.176838,74.2845401 164.010074,74.2839124 C170.419104,74.2839124 173.286417,72.3755912 176.51513,69.449708 L176.51513,69.449708 L176.51513,69.449708 Z M169.772984,64.6682336 C164.423641,64.6682336 160.694625,60.4071533 161.472734,55.1824964 C162.251472,49.9578394 167.248843,45.6967591 172.598187,45.6967591 C177.94753,45.6967591 181.676546,49.9578394 180.898437,55.1824964 C180.120327,60.4071533 175.122956,64.6682336 169.772984,64.6682336 L169.772984,64.6682336 L169.772984,64.6682336 Z M210.315111,37.0377518 L202.175134,37.0377518 C200.488183,37.0377518 199.802467,38.2706277 200.338595,39.8387153 L210.481669,69.5080876 L200.486298,83.6196204 C199.65225,84.7972555 200.295227,85.8744526 201.472447,85.8744526 L210.657026,85.8744526 C212.027831,85.8744526 212.696577,85.5254307 213.386694,84.5361168 L244.583968,39.8387153 C245.544977,38.4614599 245.091813,37.0208029 243.516739,37.0195474 L234.83372,37.0107591 C233.343496,37.0088759 232.744516,37.5983212 231.889727,38.8374745 L218.876826,57.6934453 L213.087518,38.8048321 C212.731146,37.6397518 211.880129,37.0377518 210.315111,37.0377518 L210.315111,37.0377518 Z" id="Shape" fill="#113984"></path>
                        <path d="M277.05337,18.9162336 C285.270655,18.9162336 292.849991,23.365635 291.812931,34.4615182 C290.582915,47.6151241 283.485026,54.9401898 272.321863,54.9703212 L262.583556,54.9703212 C261.17944,54.9703212 260.504408,56.1096642 260.136724,58.4567737 L258.257445,70.4283504 C257.973982,72.2356058 257.046914,73.1282482 255.67171,73.1282482 L246.602778,73.1282482 C245.155923,73.1282482 244.651849,72.2048467 244.973651,70.1408467 L252.470651,22.1534745 C252.838965,19.7938102 253.743407,18.9162336 255.345507,18.9162336 L277.05337,18.9162336 L277.05337,18.9162336 Z M262.280609,44.6032409 L269.668246,44.6044964 C274.28662,44.4306131 277.357574,41.2360584 277.666178,35.4721752 C277.85662,31.9122774 275.450012,29.3661752 271.618548,29.3837518 L264.663961,29.4151387 L262.280609,44.6032409 L262.280609,44.6032409 Z M316.466044,69.449708 C317.294435,68.6989343 318.140424,68.3059708 318.017234,69.2343942 L317.722458,71.4578394 C317.569099,72.6166423 318.031062,73.236219 319.114004,73.236219 L327.171016,73.236219 C328.526107,73.236219 329.188569,72.6875766 329.522942,70.5928175 L334.488259,39.4683504 C334.737782,37.9046569 334.358783,37.137562 333.169621,37.137562 L324.311873,37.137562 C323.512394,37.137562 323.125854,37.5857664 322.916556,38.8042044 L322.58784,40.7200584 C322.416254,41.7200438 321.958062,41.8932993 321.532553,40.8870365 C320.027873,37.3315328 316.195151,35.737708 310.818782,35.8481898 C298.390405,36.1030511 290.012218,45.5260146 289.115947,57.6043066 C288.422688,66.9475474 295.127752,74.2845401 303.960988,74.2839124 C310.370646,74.2839124 313.23796,72.3755912 316.466044,69.449708 L316.466044,69.449708 L316.466044,69.449708 Z M309.723898,64.6682336 C304.374555,64.6682336 300.645539,60.4071533 301.423648,55.1824964 C302.201757,49.9578394 307.199757,45.6967591 312.5491,45.6967591 C317.898444,45.6967591 321.62746,49.9578394 320.848722,55.1824964 C320.071241,60.4071533 315.07387,64.6682336 309.723898,64.6682336 L309.723898,64.6682336 L309.723898,64.6682336 Z M346.888352,73.2927153 L337.588754,73.2927153 C336.850241,73.2927153 336.336739,72.7145693 336.448616,72.0077372 L344.626933,20.310438 C344.73881,19.6036058 345.434583,19.0254599 346.173724,19.0254599 L355.472694,19.0254599 C356.211835,19.0254599 356.724708,19.6036058 356.612831,20.310438 L348.434514,72.0077372 C348.323266,72.7145693 347.627493,73.2927153 346.888352,73.2927153 L346.888352,73.2927153 Z" id="Shape" fill="#009EE3"></path>
                        <path d="M16.1674489,-0.286875912 L40.5433838,-0.286875912 C47.4087201,-0.286875912 55.5512113,-0.0640291971 60.9986039,4.73376642 C64.6371127,7.9389927 66.5465599,13.045635 66.1059665,18.5276642 C64.6113433,37.1174745 53.4777201,47.5297518 38.5478292,47.5297518 L26.5254771,47.5297518 C24.4790123,47.5297518 23.1226637,48.883781 22.5456813,52.5516496 L19.1906356,73.8658394 C18.9731673,75.2487445 18.3729296,76.0635474 17.2774173,76.1621022 L2.26204754,76.1621022 C0.595838028,76.1621022 0.00314260563,74.8890511 0.439336268,72.1320292 L11.2517852,3.75763504 C11.6848363,1.01818978 13.1857447,-0.286875912 16.1674489,-0.286875912 L16.1674489,-0.286875912 Z" id="Shape" fill="#113984"></path>
                        <path d="M22.8951391,50.4029051 L27.1521127,23.4936934 C27.5254542,21.1308905 28.8202077,20.0059854 31.3914877,20.0059854 L55.7429102,20.0059854 C59.7742447,20.0059854 63.0306127,20.6343504 65.5836655,21.7931533 C63.1368327,38.3371679 52.4230616,47.5303796 38.391956,47.5303796 L26.3696039,47.5303796 C24.7876162,47.5297518 23.605368,48.3376496 22.8951391,50.4029051 L22.8951391,50.4029051 Z" id="Shape" fill="#172C70"></path>
                    </g>
                </g>
            </g>
        </g>
    </g>
</svg>