<?xml version="1.0" encoding="UTF-8" standalone="no"?>
<svg width="63px" height="54px" viewBox="0 0 63 54" version="1.1" xmlns="http://www.w3.org/2000/svg" xmlns:xlink="http://www.w3.org/1999/xlink" xmlns:sketch="http://www.bohemiancoding.com/sketch/ns">
    <!-- Generator: Sketch 3.3.1 (12002) - http://www.bohemiancoding.com/sketch -->
    <title>coins30</title>
    <desc>Created with Sketch.</desc>
    <defs></defs>
    <g id="Page-1" stroke="none" stroke-width="1" fill="none" fill-rule="evenodd" sketch:type="MSPage">
        <g id="Serve-Guests-John-invited" sketch:type="MSArtboardGroup" transform="translate(-641.000000, -1642.000000)" fill="#FFFFFF">
            <g id="coins30" sketch:type="MSLayerGroup" transform="translate(641.000000, 1642.000000)">
                <g id="Group" sketch:type="MSShapeGroup">
                    <path d="M62.9038351,31.2693333 C62.6518351,30.1506667 61.7449281,29.4462667 60.4181987,29.1542667 C59.3127019,28.9112 57.3712896,28.9166667 54.3995011,30.3234667 C54.1922537,30.4134667 40.4495962,36.2836 37.8851099,37.3845333 C37.4899281,37.554 37.3536723,38.1137333 37.3536723,38.1137333 C33.9471438,47.4944 24.2083827,43.6049333 24.2194376,43.4770667 C29.2525116,43.6948 32.847907,40.9325333 33.936222,38.7725333 C36.4777992,33.728 30.7685074,34.3877333 27.6546025,34.3529333 C15.9912114,34.2214667 16.1622304,37.0841333 9.90764905,39.1737333 L0.425816068,42.8329333 C0.183272727,42.9325333 0.0719238901,43.1524 0.0202452431,43.3852 C-0.0314334038,43.6181333 0.0170486258,43.862 0.153837209,44.0573333 L0.776112051,44.9458667 C2.32727061,47.1606667 4.16106342,50.5713333 5.77588795,52.8034667 C5.87991121,52.9472 6.02642283,53.0548 6.19491121,53.1110667 C6.23220507,53.1238667 6.28148626,53.1381333 6.34222199,53.1517333 C6.55945877,53.1993333 6.79294503,53.2038667 6.97275476,53.1616 L13.9075497,51.4108 C14.2722304,51.3241333 31.8279197,56.7334667 38.5703848,52.0332 L59.3170973,36.2852 C60.1371628,35.6356 60.9850655,34.964 61.8319027,34.3061333 C62.7561247,33.5877333 63.1449133,32.3394667 62.9038351,31.2693333 L62.9038351,31.2693333 Z" id="Shape"></path>
                    <path d="M38.5237674,0.0185333333 C33.8601691,0.0185333333 29.9004926,3.024 28.4646786,7.20453333 C32.881871,8.49933333 36.1091226,12.5826667 36.1091226,17.4232 C36.1091226,18.6361333 35.90374,19.8002667 35.5306681,20.8864 C36.480463,21.1648 37.4842008,21.3168 38.5240338,21.3168 C44.3992833,21.3168 49.1621099,16.5490667 49.1621099,10.6677333 C49.1621099,4.7864 44.3991501,0.0185333333 38.5237674,0.0185333333 L38.5237674,0.0185333333 Z M40.6595074,16.4336 C40.6595074,16.8692 40.306814,17.2224 39.8716744,17.2224 L38.4204101,17.2224 C37.9852706,17.2224 37.6327104,16.8693333 37.6327104,16.4336 L37.6327104,7.582 L36.7345941,8.06733333 C36.5209535,8.1828 36.2657569,8.1932 36.043592,8.09546667 C35.8214271,7.99773333 35.6562685,7.8028 35.5967315,7.5672 L35.3099683,6.43586667 C35.2209958,6.08453333 35.3825581,5.7176 35.7018203,5.54666667 L38.2031734,4.2064 C38.3174524,4.1452 38.4451839,4.11306667 38.5749133,4.11306667 L39.8715412,4.11306667 C40.3066808,4.11306667 40.6593742,4.466 40.6593742,4.90173333 L40.6593742,16.4336 L40.6595074,16.4336 L40.6595074,16.4336 Z" id="Shape"></path>
                    <path d="M23.939334,7.9296 C18.2113953,7.9296 13.5680423,12.578 13.5680423,18.312 C13.5680423,24.046 18.2113953,28.6944 23.939334,28.6944 C29.6674059,28.6944 34.3110254,24.046 34.3110254,18.312 C34.3110254,12.578 29.6674059,7.9296 23.939334,7.9296 L23.939334,7.9296 Z M26.0213975,23.9336 C26.0213975,24.3584 25.6773615,24.7026667 25.253277,24.7026667 L23.8383742,24.7026667 C23.4141564,24.7026667 23.0702537,24.3584 23.0702537,23.9336 L23.0702537,15.3036 L22.1946469,15.7768 C21.986334,15.8894667 21.7376638,15.8994667 21.5209598,15.8042667 C21.3042558,15.7090667 21.1433594,15.5189333 21.0851543,15.2893333 L20.8055835,14.1862667 C20.7188753,13.8437333 20.8764419,13.486 21.1877125,13.3193333 L23.6265983,12.0125333 C23.7380803,11.9528 23.862482,11.9214667 23.9890148,11.9214667 L25.253277,11.9214667 C25.6774947,11.9214667 26.0213975,12.2657333 26.0213975,12.6904 L26.0213975,23.9336 L26.0213975,23.9336 Z" id="Shape"></path>
                </g>
            </g>
        </g>
    </g>
</svg>