<?xml version="1.0" encoding="UTF-8" standalone="no"?>
<svg width="82px" height="82px" viewBox="0 0 82 82" version="1.1" xmlns="http://www.w3.org/2000/svg" xmlns:xlink="http://www.w3.org/1999/xlink" xmlns:sketch="http://www.bohemiancoding.com/sketch/ns">
    <!-- Generator: Sketch 3.3.1 (12002) - http://www.bohemiancoding.com/sketch -->
    <title>Oval 1 + Shape</title>
    <desc>Created with Sketch.</desc>
    <defs></defs>
    <g id="Page-1" stroke="none" stroke-width="1" fill="none" fill-rule="evenodd" sketch:type="MSPage">
        <g id="Discovery-Map" sketch:type="MSArtboardGroup" transform="translate(-26.000000, -292.000000)">
            <g id="Oval-1-+-Shape" sketch:type="MSLayerGroup" transform="translate(22.000000, 288.000000)">
                <circle id="Oval-62" fill-opacity="0.607393569" fill="#000000" sketch:type="MSShapeGroup" cx="45" cy="45" r="41"></circle>
                <path d="M26.8221344,41.465415 C26.8221344,49.6887352 33.458498,56.18083 41.5375494,56.3250988 L41.5375494,56.3250988 C43.9901186,56.3250988 46.4426877,55.6037549 48.4624506,54.5938735 L48.4624506,54.5938735 L55.8201581,61.951581 C57.5513834,63.6828063 60.2924901,63.6828063 61.8794466,61.951581 L61.8794466,61.951581 C63.6106719,60.2203557 63.6106719,57.6235178 61.8794466,55.8922925 L61.8794466,55.8922925 L54.3774704,48.534585 C55.5316206,46.5148221 56.2529644,44.2065217 56.2529644,41.6096838 L56.2529644,41.6096838 C56.3972332,33.3863636 49.7608696,26.75 41.6818182,26.75 L41.6818182,26.75 C33.458498,26.75 26.8221344,33.3863636 26.8221344,41.465415 L26.8221344,41.465415 Z M31.4387352,41.465415 C31.4387352,35.8389328 36.055336,31.222332 41.6818182,31.222332 L41.6818182,31.222332 C47.3083004,31.222332 51.9249012,35.8389328 51.9249012,41.465415 L51.9249012,41.465415 C51.9249012,47.0918972 47.3083004,51.708498 41.6818182,51.708498 L41.6818182,51.708498 C35.9110672,51.708498 31.2944664,47.0918972 31.4387352,41.465415 L31.4387352,41.465415 L31.4387352,41.465415 Z" id="Shape" fill="#FFFFFF" sketch:type="MSShapeGroup"></path>
            </g>
        </g>
    </g>
</svg>