<?xml version="1.0" encoding="utf-8"?>
<!-- Generator: Adobe Illustrator 16.0.0, SVG Export Plug-In . SVG Version: 6.00 Build 0)  -->
<!DOCTYPE svg PUBLIC "-//W3C//DTD SVG 1.1//EN" "http://www.w3.org/Graphics/SVG/1.1/DTD/svg11.dtd">
<svg version="1.1" id="Layer_1" xmlns:sketch="http://www.bohemiancoding.com/sketch/ns"
	 xmlns="http://www.w3.org/2000/svg" xmlns:xlink="http://www.w3.org/1999/xlink" x="0px" y="0px" width="69px" height="79px"
	 viewBox="0 0 69 79" enable-background="new 0 0 69 79" xml:space="preserve">
<title>coffee4 copy</title>
<desc>Created with Sketch.</desc>
<g id="Page-1" sketch:type="MSPage">
	<g id="Discovery-Map" transform="translate(-587.000000, -1183.000000)" sketch:type="MSArtboardGroup">
		<g id="Nav-unit" transform="translate(-217.000000, 1076.000000)" sketch:type="MSLayerGroup">
			<g id="coffee4-copy" sketch:type="MSShapeGroup">
				<g transform="translate(804.000000, 107.500000)">
					<g id="Group">
						<rect id="Rectangle-path" x="21.149" y="30.287" width="14.578" height="2.879"/>
						<path id="Shape" d="M65.543,0.062H8.559c-1.826,0-3.313,1.615-3.313,3.599V25.25c0,1.983,1.487,3.599,3.313,3.599h37.106
							c2.558,0,4.638,2.26,4.638,5.038v13.673v15.113v15.113h15.24c1.828,0,3.313-1.614,3.313-3.599V3.66
							C68.856,1.677,67.371,0.062,65.543,0.062L65.543,0.062z M37.133,14.814c-1.99,0-3.694-1.261-4.519-3.077l-0.97,0.182
							c-0.076,0.014-0.151,0.021-0.226,0.021c-0.633,0-1.194-0.495-1.304-1.196c-0.125-0.783,0.359-1.528,1.081-1.662l0.925-0.173
							c0.2-2.831,2.355-5.068,5.013-5.068c2.789,0,5.052,2.457,5.052,5.487S39.924,14.814,37.133,14.814L37.133,14.814z"/>
						<path id="Shape_1_" d="M8.559,67.709c-1.826,0-3.313,1.613-3.313,3.599v2.879c0,1.984,1.487,3.599,3.313,3.599h40.419v-11.6
							c-0.844,0.938-2.016,1.523-3.313,1.523H8.559L8.559,67.709z"/>
						<path id="Shape_2_" d="M19.824,38.923h10.289l0.57,1.439l0.203,0.513l2.756-0.008l0.16-0.505l0.458-1.439h2.791v-4.318H19.824
							V38.923z"/>
						<path id="Shape_3_" d="M18.499,35.505l-17.435-1.89c0,0-2.167,2.608-0.179,6.206l17.614-1.798V35.505L18.499,35.505z"/>
						<path id="Shape_4_" d="M20.462,63.289c-3.198,0.267-5.277,0.689-5.277,1.166c0,0.805,5.877,1.457,13.128,1.457
							c7.25,0,13.127-0.652,13.127-1.457c0-0.477-2.079-0.899-5.278-1.166c1.433-1.2,2.479-2.753,3.237-4.514
							c5.824-0.283,7.776-3.005,7.776-6.326c0-2.899-1.494-5.342-5.756-6.102c0.02-1.084,0.021-2.131,0.021-3.106H15.185
							C15.185,49.613,15.192,58.867,20.462,63.289L20.462,63.289z M43.798,52.515c-0.029,1.799-0.107,3.02-3.444,3.448
							c0.571-2.2,0.842-4.561,0.969-6.854C43.731,49.689,43.824,50.922,43.798,52.515L43.798,52.515z"/>
					</g>
				</g>
			</g>
		</g>
	</g>
</g>
</svg>
