<?xml version="1.0" encoding="UTF-8" standalone="no"?>
<svg width="69px" height="79px" viewBox="0 0 69 79" version="1.1" xmlns="http://www.w3.org/2000/svg" xmlns:xlink="http://www.w3.org/1999/xlink" xmlns:sketch="http://www.bohemiancoding.com/sketch/ns">
    <!-- Generator: Sketch 3.3.1 (12002) - http://www.bohemiancoding.com/sketch -->
    <title>coffee4 copy</title>
    <desc>Created with Sketch.</desc>
    <defs></defs>
    <g id="Page-1" stroke="none" stroke-width="1" fill="none" fill-rule="evenodd" sketch:type="MSPage">
        <g id="Discovery-Map" sketch:type="MSArtboardGroup" transform="translate(-587.000000, -1183.000000)" fill="#888888">
            <g id="Nav-unit" sketch:type="MSLayerGroup" transform="translate(-217.000000, 1076.000000)">
                <g id="coffee4-copy" sketch:type="MSShapeGroup">
                    <g transform="translate(804.000000, 107.500000)">
                        <g id="Group">
                            <rect id="Rectangle-path" x="21.1487327" y="30.2872897" width="14.5773411" height="2.8786258"></rect>
                            <path d="M65.5433622,0.06171875 L8.55921085,0.06171875 C6.73306758,0.06171875 5.24617879,1.67662782 5.24617879,3.660001 L5.24617879,25.2496945 C5.24617879,27.2330677 6.73306758,28.8479768 8.55921085,28.8479768 L45.6651699,28.8479768 C48.2228306,28.8479768 50.3034148,31.107698 50.3034148,33.8855719 L50.3034148,47.5590445 L50.3034148,62.6718299 L50.3034148,77.7846154 L65.5433622,77.7846154 C67.3708307,77.7846154 68.8563943,76.1711456 68.8563943,74.1863331 L68.8563943,3.660001 C68.8563943,1.67662782 67.3708307,0.06171875 65.5433622,0.06171875 L65.5433622,0.06171875 Z M37.1334497,14.814676 C35.1429801,14.814676 33.4387564,13.5538379 32.614474,11.737425 L31.6444182,11.9187784 C31.5688811,11.9331716 31.493344,11.9403681 31.419132,11.9403681 C30.7856803,11.9403681 30.2251153,11.4452445 30.1151226,10.7442991 C29.9905526,9.96131288 30.4742553,9.2157488 31.1964963,9.0818927 L32.1214948,8.90917515 C32.321602,6.07804667 34.476398,3.84135443 37.134775,3.84135443 C39.9243479,3.84135443 42.1864862,6.29826155 42.1864862,9.3280152 C42.1864862,12.3577689 39.9243479,14.814676 37.1334497,14.814676 L37.1334497,14.814676 Z" id="Shape"></path>
                            <path d="M8.55921085,67.7094251 C6.73306758,67.7094251 5.24617879,69.3228948 5.24617879,71.3077073 L5.24617879,74.1863331 C5.24617879,76.1711456 6.73306758,77.7846154 8.55921085,77.7846154 L48.9782019,77.7846154 L48.9782019,66.1851927 C48.1353666,67.1236247 46.9625532,67.7094251 45.6651699,67.7094251 L8.55921085,67.7094251 L8.55921085,67.7094251 Z" id="Shape"></path>
                            <path d="M19.8235198,38.9231671 L30.1124722,38.9231671 L30.6823137,40.36248 L30.8850713,40.8748754 L33.6415139,40.8676788 L33.8018647,40.36248 L34.2603883,38.9231671 L37.0512865,38.9231671 L37.0512865,34.6052284 L19.8235198,34.6052284 L19.8235198,38.9231671 Z" id="Shape"></path>
                            <path d="M18.498307,35.5047989 L1.06380712,33.6149811 C1.06380712,33.6149811 -1.10291584,36.2230161 0.88490339,39.8212983 L18.498307,38.0235965 L18.498307,35.5047989 L18.498307,35.5047989 Z" id="Shape"></path>
                            <path d="M20.4622724,63.2892952 C17.2645339,63.555568 15.185275,63.978726 15.185275,64.4551386 C15.185275,65.2597145 21.0625938,65.9117233 28.3128332,65.9117233 C35.5630725,65.9117233 41.4403914,65.2597145 41.4403914,64.4551386 C41.4403914,63.978726 39.3611325,63.555568 36.1620687,63.2892952 C37.5946238,62.0889082 38.6402167,60.5358896 39.3995637,58.7756099 C45.223874,58.4920653 47.1759125,55.7703246 47.1759125,52.4498297 C47.1759125,49.5496142 45.6810724,47.1071002 41.4205132,46.347143 C41.4390662,45.2633404 41.4403914,44.2169599 41.4403914,43.2411058 L15.185275,43.2411058 C15.185275,49.612944 15.191901,58.8677259 20.4622724,63.2892952 L20.4622724,63.2892952 Z M43.797945,52.5145988 C43.7687903,54.3137399 43.6906028,55.5342773 40.3537169,55.9631925 C40.9248836,53.7624831 41.195227,51.4020099 41.3224475,49.1091845 C43.7316844,49.6892276 43.8244493,50.9212794 43.797945,52.5145988 L43.797945,52.5145988 Z" id="Shape"></path>
                        </g>
                    </g>
                </g>
            </g>
        </g>
    </g>
</svg>