<?xml version="1.0" encoding="UTF-8" standalone="no"?>
<svg width="40px" height="37px" viewBox="0 0 40 37" version="1.1" xmlns="http://www.w3.org/2000/svg" xmlns:xlink="http://www.w3.org/1999/xlink" xmlns:sketch="http://www.bohemiancoding.com/sketch/ns">
    <!-- Generator: Sketch 3.3.1 (12002) - http://www.bohemiancoding.com/sketch -->
    <title>share15</title>
    <desc>Created with Sketch.</desc>
    <defs></defs>
    <g id="Page-1" stroke="none" stroke-width="1" fill="none" fill-rule="evenodd" sketch:type="MSPage">
        <g id="Serve-Guests-John-invited" sketch:type="MSArtboardGroup" transform="translate(-607.000000, -205.000000)" fill="#928C8C">
            <g id="share15" sketch:type="MSLayerGroup" transform="translate(607.000000, 205.000000)">
                <g id="Group" sketch:type="MSShapeGroup">
                    <path d="M39.2179153,9.57728455 L30.0635501,0.495905008 C29.7611853,0.196301321 29.4031239,0.0466237262 28.9902008,0.0466237262 C28.8002312,0.0466237262 28.6009927,0.0860518033 28.3946565,0.164659461 C27.7745622,0.432786952 27.4645151,0.897889164 27.4645151,1.56004893 L27.4645151,6.1009872 L23.6498414,6.1009872 C21.9652491,6.1009872 20.403323,6.1877124 18.965232,6.36107997 C17.526974,6.53436472 16.2593964,6.77466062 15.1627497,7.08238186 C14.0660196,7.38952326 13.0765909,7.77204188 12.1944638,8.22927504 C11.3125037,8.68634254 10.56156,9.17124162 9.94154923,9.68372379 C9.32145495,10.1961231 8.77726502,10.7795924 8.30839491,11.4338831 C7.8392743,12.088091 7.46601529,12.7304539 7.18761584,13.3611375 C6.9097174,13.9919867 6.68726505,14.6856227 6.52025878,15.4422939 C6.35308551,16.1991307 6.24194283,16.9085048 6.18632975,17.5704989 C6.13071666,18.2326586 6.10291012,18.9502331 6.10291012,19.7223939 C6.10291012,20.6056325 6.24219334,21.5671474 6.52025878,22.6080984 C6.79840773,23.6483866 7.10436321,24.5469492 7.43812524,25.3038689 C7.77180377,26.0601259 8.16535404,26.8447944 8.61835855,27.6565489 C9.07127955,28.4684691 9.38508433,29.0081202 9.5599399,29.2763305 C9.73471196,29.5438782 9.90188524,29.7888127 10.0607082,30.0093945 C10.2196147,30.2143211 10.4262014,30.3167016 10.680385,30.3167016 C10.7442649,30.3167016 10.8392079,30.3012948 10.9665502,30.269653 C11.3320434,30.0961197 11.4908664,29.8285721 11.4431861,29.4657675 C10.7280653,24.1683237 11.3162613,20.4393056 13.2074403,18.2795416 C15.035491,16.2142061 18.5161521,15.1813728 23.6495909,15.1813728 L27.4645151,15.1813728 L27.4645151,19.7218969 C27.4645151,20.3846364 27.7743117,20.8494902 28.394406,21.1177005 C28.6007422,21.1964738 28.7996467,21.2356534 28.9899503,21.2356534 C29.4191565,21.2356534 29.7769674,21.0859758 30.0632996,20.7866206 L39.2179988,11.7051582 C39.5196956,11.4053889 39.6709198,11.0509503 39.6709198,10.6410143 C39.6708363,10.2314096 39.5196121,9.87639124 39.2179153,9.57728455 L39.2179153,9.57728455 Z" id="Shape"></path>
                    <path d="M33.0669074,22.7494928 C32.7642085,22.6228425 32.4864771,22.6862919 32.2324606,22.9385984 C31.8192871,23.3169754 31.3897469,23.6089586 30.9448422,23.8136367 C30.658176,23.9711833 30.5155526,24.1996342 30.5155526,24.4992379 L30.5155526,29.5606102 C30.5155526,30.601147 30.1426276,31.4912607 29.3953581,32.2327736 C28.6484225,32.9737895 27.7500123,33.3442975 26.7012129,33.3442975 L6.86579476,33.3442975 C5.81666137,33.3442975 4.91866866,32.9737895 4.17164961,32.2327736 C3.42454706,31.4912607 3.05120455,30.6012298 3.05120455,29.5606102 L3.05120455,9.88426029 C3.05120455,8.84364069 3.42454706,7.95319567 4.17164961,7.21217975 C4.91858515,6.471081 5.81657787,6.1007387 6.86579476,6.1007387 L9.5359745,6.1007387 C9.63125158,6.1007387 9.75859386,6.06901401 9.91741682,6.00606162 C10.8075602,5.46988947 11.8641254,4.99675254 13.0881979,4.58689934 C13.5014549,4.50820885 13.7080416,4.25606795 13.7080416,3.83014532 C13.7080416,3.62521872 13.6326383,3.44820653 13.4815811,3.29811477 C13.330524,3.14868568 13.1520778,3.07380546 12.9452405,3.07380546 L6.86612877,3.07380546 C4.97478276,3.07380546 3.35749405,3.73994117 2.01442963,5.07212975 C0.671532211,6.4042355 0,8.00852751 0,9.88467445 L0,29.5603617 C0,31.4365915 0.671532211,33.0408007 2.01451313,34.3730721 C3.35757755,35.7053435 4.97486627,36.3714792 6.86621227,36.3714792 L26.7016304,36.3714792 C28.5927259,36.3714792 30.2101816,35.7053435 31.5532461,34.3730721 C32.896394,33.0408007 33.5679262,31.4366744 33.5679262,29.5603617 L33.5679262,23.4352597 C33.5678427,23.1200007 33.4009199,22.8915498 33.0669074,22.7494928 L33.0669074,22.7494928 Z" id="Shape"></path>
                </g>
            </g>
        </g>
    </g>
</svg>